<?xml version="1.0" encoding="UTF-8"?>
<svg xmlns="http://www.w3.org/2000/svg" version="1.1" xmlns:xlink="http://www.w3.org/1999/xlink" viewBox="0 0 1099.4 424.3">
  <!-- Generator: Adobe Illustrator 29.2.0, SVG Export Plug-In . SVG Version: 2.1.0 Build 108)  -->
  <defs>
    <style>
      .st0 {
        fill: #6f6e6e;
      }

      .st1 {
        clip-path: url(#clippath-6);
      }

      .st2 {
        clip-path: url(#clippath-7);
      }

      .st3 {
        clip-path: url(#clippath-4);
      }

      .st4 {
        fill: #f5edf7;
      }

      .st5 {
        clip-path: url(#clippath-9);
      }

      .st6 {
        clip-path: url(#clippath-10);
      }

      .st7 {
        stroke: #58519b;
        stroke-width: .4px;
      }

      .st7, .st8, .st9 {
        fill: none;
      }

      .st7, .st9 {
        stroke-miterlimit: 10;
      }

      .st10 {
        fill: #fff;
      }

      .st11 {
        fill: #b4006d;
      }

      .st12 {
        fill: #de3a87;
      }

      .st13 {
        clip-path: url(#clippath-11);
      }

      .st14 {
        mix-blend-mode: multiply;
        opacity: .8;
      }

      .st14, .st15 {
        isolation: isolate;
      }

      .st16 {
        fill: #223585;
      }

      .st17 {
        fill: #10100a;
      }

      .st18 {
        clip-path: url(#clippath-1);
      }

      .st9 {
        stroke: #8f026e;
        stroke-width: .7px;
      }

      .st19 {
        clip-path: url(#clippath-5);
      }

      .st20 {
        clip-path: url(#clippath-8);
      }

      .st21 {
        fill: #8f016e;
      }

      .st22 {
        clip-path: url(#clippath-3);
      }

      .st23 {
        fill: #295ca7;
      }

      .st24 {
        clip-path: url(#clippath-12);
      }

      .st25 {
        fill: #5d5c5c;
      }

      .st26 {
        fill: #8f026e;
      }

      .st27 {
        fill: #8c8b8b;
      }

      .st28 {
        clip-path: url(#clippath-2);
      }

      .st29 {
        fill: #574893;
      }

      .st30 {
        clip-path: url(#clippath);
      }
    </style>
    <clipPath id="clippath">
      <rect class="st8" width="1099.4" height="424.3"/>
    </clipPath>
    <clipPath id="clippath-1">
      <rect class="st8" width="1099.4" height="424.3"/>
    </clipPath>
    <clipPath id="clippath-2">
      <rect class="st8" width="1099.4" height="424.3"/>
    </clipPath>
    <clipPath id="clippath-3">
      <rect class="st8" width="1099.4" height="424.3"/>
    </clipPath>
    <clipPath id="clippath-4">
      <rect class="st8" width="1099.4" height="424.3"/>
    </clipPath>
    <clipPath id="clippath-5">
      <rect class="st8" width="1099.4" height="424.3"/>
    </clipPath>
    <clipPath id="clippath-6">
      <rect class="st8" width="1099.4" height="424.3"/>
    </clipPath>
    <clipPath id="clippath-7">
      <rect class="st8" width="1099.4" height="424.3"/>
    </clipPath>
    <clipPath id="clippath-8">
      <rect class="st8" width="1099.4" height="424.3"/>
    </clipPath>
    <clipPath id="clippath-9">
      <rect class="st8" width="1099.4" height="424.3"/>
    </clipPath>
    <clipPath id="clippath-10">
      <rect class="st8" width="1099.4" height="424.3"/>
    </clipPath>
    <clipPath id="clippath-11">
      <rect class="st8" width="1099.4" height="424.3"/>
    </clipPath>
    <clipPath id="clippath-12">
      <rect class="st8" width="1099.4" height="424.3"/>
    </clipPath>
  </defs>
  <g class="st15">
    <g id="_레이어_1" data-name="레이어_1">
      <g class="st30">
        <g>
          <g>
            <g class="st15">
              <g class="st15">
                <path class="st17" d="M419.5,32.1c-2.5,0-4.4-2-4.4-5.1,0-3.1,1.8-5.1,4.4-5.1s4.4,2,4.4,5.1c0,3.1-1.8,5.1-4.4,5.1ZM419.5,31c1.8,0,3.2-1.4,3.2-3.9,0-2.6-1.4-3.9-3.2-3.9s-3.2,1.4-3.2,3.9c0,2.5,1.4,3.9,3.2,3.9Z"/>
                <path class="st17" d="M433.6,32h-1.2l-5.4-7.7h0v7.7h-1.2v-9.9h1.2l5.4,7.7h0v-7.7h1.2v9.9Z"/>
              </g>
              <g class="st15">
                <path class="st17" d="M435.8,22.1h6v1.1h-4.8v3.3h4.5v1.1h-4.5v3.3h4.8v1.1h-6.1v-9.9Z"/>
              </g>
              <g class="st15">
                <path class="st17" d="M446.4,32l3.6-9.9h1.3l3.6,9.9h-1.3l-1-2.8h-4l-1,2.8h-1.3ZM452.3,28.1l-1.6-4.4h0l-1.6,4.4h3.2Z"/>
              </g>
              <g class="st15">
                <path class="st17" d="M457.5,32h-1.2v-9.9h1.2v9.9Z"/>
                <path class="st17" d="M472.4,27.5h-3.8v3.1h5.1v.9h-11.1v-.9h5v-3.1h-3.6v-5.6h8.3v.9h-7.2v3.8h7.3v.9Z"/>
                <path class="st17" d="M478.2,21.5c1.8,0,3.2,1.1,3.2,2.8,0,1.7-1.3,2.8-3.2,2.8-1.8,0-3.2-1.1-3.2-2.8,0-1.7,1.3-2.8,3.2-2.8ZM478.2,26.2c1.2,0,2.1-.8,2.1-1.9s-.9-1.9-2.1-1.9c-1.3,0-2.1.8-2.1,1.9,0,1.1.9,1.9,2.1,1.9ZM476.9,28.1h1.1v1.5h5.7v-1.5h1.1v4.9h-7.9v-4.9ZM483.7,32.1v-1.6h-5.7v1.6h5.7ZM484.7,27.5h-1.1v-6.5h1.1v6.5Z"/>
              </g>
              <g class="st15">
                <path class="st17" d="M493.4,23.5v-.6h-2.7v-.9h6.5v.9h-2.7v.6c0,1.6,1.2,3.1,3,3.7l-.6.9c-1.4-.5-2.4-1.5-3-2.8-.5,1.4-1.6,2.5-3.1,3.1l-.6-.9c1.8-.6,3.1-2.2,3.1-4ZM492.6,29.1h1.1v2.9h7.1v.9h-8.1v-3.8ZM500.4,29.9h-1.1v-4.7h-2.5v-.9h2.5v-3.4h1.1v8.9Z"/>
              </g>
            </g>
            <g class="st15">
              <g class="st15">
                <path class="st17" d="M419.5,53.1c-2.5,0-4.4-2-4.4-5.1,0-3.1,1.8-5.1,4.4-5.1s4.4,2,4.4,5.1c0,3.1-1.8,5.1-4.4,5.1ZM419.5,51.9c1.8,0,3.2-1.4,3.2-3.9,0-2.6-1.4-3.9-3.2-3.9s-3.2,1.4-3.2,3.9c0,2.5,1.4,3.9,3.2,3.9Z"/>
                <path class="st17" d="M433.6,53h-1.2l-5.4-7.7h0v7.7h-1.2v-9.9h1.2l5.4,7.7h0v-7.7h1.2v9.9Z"/>
              </g>
              <g class="st15">
                <path class="st17" d="M435.8,43.1h6v1.1h-4.8v3.3h4.5v1.1h-4.5v3.3h4.8v1.1h-6.1v-9.9Z"/>
              </g>
              <g class="st15">
                <path class="st17" d="M446.4,53l3.6-9.9h1.3l3.6,9.9h-1.3l-1-2.8h-4l-1,2.8h-1.3ZM452.3,49.1l-1.6-4.4h0l-1.6,4.4h3.2Z"/>
              </g>
              <g class="st15">
                <path class="st17" d="M457.5,53h-1.2v-9.9h1.2v9.9Z"/>
                <path class="st17" d="M472.4,48.5h-3.8v3.1h5.1v.9h-11.1v-.9h5v-3.1h-3.6v-5.6h8.3v.9h-7.2v3.8h7.3v.9Z"/>
                <path class="st17" d="M478.2,42.5c1.8,0,3.2,1.1,3.2,2.8,0,1.7-1.3,2.8-3.2,2.8-1.8,0-3.2-1.1-3.2-2.8,0-1.7,1.3-2.8,3.2-2.8ZM478.2,47.2c1.2,0,2.1-.8,2.1-1.9s-.9-1.9-2.1-1.9c-1.3,0-2.1.8-2.1,1.9,0,1.1.9,1.9,2.1,1.9ZM476.9,49h1.1v1.5h5.7v-1.5h1.1v4.9h-7.9v-4.9ZM483.7,53v-1.6h-5.7v1.6h5.7ZM484.7,48.4h-1.1v-6.5h1.1v6.5Z"/>
              </g>
              <g class="st15">
                <path class="st17" d="M490.3,49.8h11.1v.9h-5.1v3.4h-1.1v-3.4h-5v-.9ZM500.7,44.2h-9.9v-.9h4.4v-1.5h1.1v1.5h4.4v.9ZM495.8,44.9c2.5,0,4,.7,4,2,0,1.3-1.5,2-4,2-2.5,0-4-.7-4-2,0-1.3,1.5-2,4-2ZM495.8,48.1c1.8,0,2.8-.4,2.9-1.2,0-.8-1.1-1.2-2.9-1.2-1.8,0-2.9.5-2.9,1.2,0,.8,1,1.2,2.9,1.2Z"/>
              </g>
            </g>
          </g>
          <g class="st18">
            <g class="st14">
              <g class="st28">
                <path class="st4" d="M1094.5,424.3H4.9c-2.7,0-4.9-2.2-4.9-4.9V4.9C0,2.2,2.2,0,4.9,0h0s1089.6,0,1089.6,0c2.7,0,4.9,2.2,4.9,4.9h0v414.6c0,2.7-2.2,4.9-4.9,4.9h0"/>
              </g>
            </g>
          </g>
          <g class="st15">
            <g class="st15">
              <path class="st29" d="M810.3,404.9c.4,0,.6.3.6.6s-.2.6-.6.6c-.4,0-.6-.2-.6-.6s.2-.6.6-.6ZM810.2,407.2l1.7-1.7-1.7-1.7.7-.7,1.7,1.7,1.7-1.7.7.7-1.7,1.7,1.7,1.7-.7.7-1.7-1.7-1.7,1.7-.7-.7ZM812.5,402.6c.4,0,.6.3.6.6,0,.3-.2.6-.6.6-.4,0-.6-.3-.6-.6,0-.3.2-.6.6-.6ZM812.5,407.2c.4,0,.6.3.6.6,0,.3-.2.6-.6.6s-.6-.3-.6-.6c0-.3.2-.6.6-.6ZM814.8,404.9c.4,0,.6.3.6.6,0,.3-.2.6-.6.6-.4,0-.6-.2-.6-.6,0-.3.2-.6.6-.6Z"/>
              <path class="st29" d="M827.7,405.3h-3.9v.9h2.8v2.1h-5.7v.9h6v.6h-6.8v-2.2h5.7v-.8h-5.7v-.6h2.9v-.9h-3.9v-.7h8.7v.7ZM822.8,401.9h-3v-.7h3v-.9h.8v.9h3.1v.7h-3c.2,1,1.6,1.6,3.4,1.7l-.3.6c-1.6-.1-3-.6-3.6-1.5-.6.9-2,1.4-3.6,1.5l-.2-.6c1.8-.1,3.2-.7,3.4-1.7Z"/>
              <path class="st29" d="M830.9,403.5v-.8h-2.2v-.7h2.2v-1.5h.8v1.5h2.2v.7h-2.2v.8c0,1.6,1.1,3.1,2.5,3.8l-.5.7c-1.1-.5-2-1.5-2.4-2.8-.4,1.3-1.3,2.4-2.4,3l-.5-.7c1.4-.7,2.4-2.3,2.4-3.9ZM836.4,410h-.8v-5h-2.1v-.7h2.1v-3.8h.8v9.6Z"/>
            </g>
            <g class="st15">
              <path class="st29" d="M841.8,403.4c.4,0,.7.3.7.7,0,.4-.3.7-.7.7-.4,0-.7-.3-.7-.7,0-.4.3-.7.7-.7ZM841.1,408.4c0-.4.3-.7.7-.7s.7.3.7.7c0,.4-.3.7-.7.7-.4,0-.7-.3-.7-.7Z"/>
            </g>
            <g class="st15">
              <path class="st29" d="M846.8,401.3h1v3.8h0l3.5-3.8h1.3l-3.3,3.5,3.3,4.3h-1.2l-2.7-3.6-1,1.1v2.5h-1v-7.8Z"/>
            </g>
            <g class="st15">
              <path class="st29" d="M855.1,402h4.7v-1.2h.8v3.8h-2.8v1h3.9v.7h-8.7v-.7h3.9v-1h-2.8v-3.8h.8v1.2ZM854.3,407.1h.8v2h5.8v.7h-6.6v-2.7ZM859.9,403.9v-1.3h-4.7v1.3h4.7Z"/>
              <path class="st29" d="M871.4,406.8h-4v3.2h-.8v-3.2h-3.9v-.7h8.7v.7ZM863.7,400.8h.8v1.3h4.8v-1.3h.8v4.1h-6.5v-4.1ZM869.4,404.2v-1.4h-4.8v1.4h4.8Z"/>
            </g>
            <g class="st15">
              <path class="st29" d="M872.9,411.3h-.8l.6-2.9h1l-.8,2.9Z"/>
            </g>
            <g class="st15">
              <path class="st29" d="M878.1,408.4l2.7-2.8c.9-1,1.4-1.5,1.4-2.2,0-.8-.7-1.3-1.5-1.3-.9,0-1.5.6-1.5,1.5h-.9c0-1.4,1.1-2.3,2.5-2.3s2.4,1,2.4,2.2c0,.9-.4,1.5-1.8,3l-1.8,1.8h0c0,0,3.7,0,3.7,0v.9h-5v-.7Z"/>
              <path class="st29" d="M884.4,405.2c0-2.5,1-4,2.7-4s2.7,1.5,2.7,4-1,4-2.7,4-2.7-1.5-2.7-4ZM887.1,408.3c1.1,0,1.8-1.1,1.8-3.1,0-2-.7-3.2-1.8-3.2-1.1,0-1.8,1.1-1.8,3.2,0,2,.7,3.1,1.8,3.1Z"/>
              <path class="st29" d="M891.1,408.4l2.7-2.8c.9-1,1.4-1.5,1.4-2.2,0-.8-.7-1.3-1.5-1.3-.9,0-1.5.6-1.5,1.5h-.9c0-1.4,1.1-2.3,2.5-2.3s2.4,1,2.4,2.2c0,.9-.4,1.5-1.8,3l-1.8,1.8h0c0,0,3.7,0,3.7,0v.9h-5v-.7Z"/>
            </g>
            <g class="st15">
              <path class="st29" d="M897.4,406.7l3.5-5.4h1.2v5.3h1.1v.8h-1.1v1.6h-.9v-1.6h-3.8v-.8ZM901.1,406.6v-4.1h0l-2.6,4h0c0,0,2.7,0,2.7,0Z"/>
              <path class="st29" d="M904.6,401.1h.8v4.2c1.3,0,2.6,0,4-.3v.7c-1.5.3-2.8.4-4.2.4h-.7v-5ZM905.8,406.9h.8v2.2h5.6v.7h-6.4v-2.9ZM912,407.5h-.8v-3.3h-2.8v-.7h2.8v-1.1h-2.8v-.7h2.8v-1.3h.8v7.1Z"/>
            </g>
            <g class="st15">
              <path class="st29" d="M919.9,409.2c-2,0-3.4-1.5-3.4-4,0-2.5,1.4-4,3.4-4s3.4,1.5,3.4,4c0,2.5-1.4,4-3.4,4ZM919.9,408.3c1.4,0,2.5-1.1,2.5-3.1,0-2-1.1-3.1-2.5-3.1s-2.5,1.1-2.5,3.1c0,2,1.1,3.1,2.5,3.1Z"/>
              <path class="st29" d="M931,409.1h-.9l-4.2-6.1h0v6.1h-1v-7.8h.9l4.2,6.1h0v-6.1h1v7.8Z"/>
            </g>
            <g class="st15">
              <path class="st29" d="M932.7,401.3h4.7v.9h-3.7v2.6h3.5v.8h-3.5v2.6h3.8v.9h-4.8v-7.8Z"/>
            </g>
            <g class="st15">
              <path class="st29" d="M941,409.1l2.8-7.8h1l2.8,7.8h-1l-.8-2.2h-3.1l-.8,2.2h-1ZM945.7,406l-1.2-3.5h0l-1.2,3.5h2.5Z"/>
            </g>
            <g class="st15">
              <path class="st29" d="M949.8,409.1h-1v-7.8h1v7.8Z"/>
              <path class="st29" d="M958.8,402.7h2v-2.3h.8v5.1h-.8v-2.1h-2c-.2,1.1-1.1,1.9-2.4,1.9s-2.5-.9-2.5-2.2c0-1.3,1-2.2,2.5-2.2,1.3,0,2.3.7,2.4,1.8ZM956.4,404.6c1,0,1.7-.6,1.7-1.5s-.7-1.5-1.7-1.5c-1,0-1.7.6-1.7,1.5s.7,1.5,1.7,1.5ZM955.5,406h.8v1.2h4.5v-1.2h.8v3.8h-6.2v-3.8ZM960.8,409.1v-1.2h-4.5v1.2h4.5Z"/>
              <path class="st29" d="M972,406.6h-4v3.3h-.8v-3.3h-3.9v-.7h8.7v.7ZM964.4,400.9h6.5v3.7h-6.5v-3.7ZM970,404v-2.4h-4.8v2.4h4.8Z"/>
              <path class="st29" d="M978.1,405.2v-.6c-1.1,0-1.8-.5-1.8-1.3,0-.8.9-1.2,2.2-1.2,1.4,0,2.2.5,2.2,1.2,0,.7-.7,1.2-1.8,1.3v.6c.9,0,1.8-.1,2.6-.2v.6c-2,.3-4.3.4-6,.4v-.6c.7,0,1.6,0,2.5,0ZM975.7,401.1h2.4v-.8h.8v.8h2.3v.6h-5.5v-.6ZM976.8,406.5h6.2v1.9h-5.4v.8h5.7v.6h-6.6v-2h5.4v-.8h-5.4v-.6ZM978.5,404c.9,0,1.4-.3,1.4-.7s-.6-.7-1.4-.7c-.9,0-1.4.3-1.4.7,0,.4.5.7,1.4.7ZM983,402.8h1.4v.7h-1.4v2.5h-.8v-5.6h.8v2.4Z"/>
              <path class="st29" d="M993.8,405.8h-8.7v-.7h2.2v-1.3c-.8-.3-1.2-.8-1.2-1.4,0-1.1,1.3-1.8,3.4-1.8,2.1,0,3.4.6,3.4,1.8,0,.6-.4,1.1-1.2,1.4v1.3h2.2v.7ZM989.4,406.6c2,0,3.3.6,3.3,1.7,0,1.1-1.2,1.7-3.3,1.7s-3.3-.6-3.3-1.7c0-1.1,1.2-1.7,3.3-1.7ZM989.4,403.5c1.5,0,2.5-.4,2.5-1.1,0-.7-1-1.1-2.5-1.1s-2.5.4-2.5,1.1c0,.7,1,1.1,2.5,1.1ZM989.4,409.3c1.5,0,2.4-.4,2.4-1,0-.7-.9-1-2.4-1-1.5,0-2.4.4-2.4,1,0,.7.9,1,2.4,1ZM990.8,405.1v-1.1c-.4,0-.9.1-1.4.1s-1,0-1.4-.1v1.1h2.7Z"/>
              <path class="st29" d="M997.8,405.9l-.4-.7c2.3-.6,3.7-1.9,3.9-3.5h-3.4v-.7h4.3c0,2.4-1.7,4.1-4.5,4.9ZM999,406.3h6.2v3.6h-6.2v-3.6ZM1004.4,409.1v-2.2h-4.5v2.2h4.5ZM1002.3,402.9h2.1v-2.5h.8v5.4h-.8v-2.3h-2.1v-.7Z"/>
              <path class="st29" d="M1015.5,405.6h-8.7v-.7h8.7v.7ZM1010.6,401.6h-3v-.7h7.1v.7h-3c0,1.1,1.6,1.9,3.3,2.1l-.3.7c-1.6-.2-3-.9-3.6-2-.5,1.1-2,1.8-3.6,2l-.3-.7c1.7-.2,3.3-1,3.3-2.1ZM1011.2,406.5c2,0,3.3.6,3.3,1.7,0,1.1-1.2,1.7-3.3,1.7s-3.3-.6-3.3-1.7c0-1.1,1.2-1.7,3.3-1.7ZM1011.2,409.2c1.5,0,2.4-.4,2.4-1,0-.7-.9-1.1-2.4-1.1-1.5,0-2.4.4-2.4,1.1,0,.7.9,1,2.4,1Z"/>
              <path class="st29" d="M1027.8,408.7h-8.7v-.7h3.9v-2.1h-2.9v-4.9h.8v1.7h5v-1.7h.8v4.9h-2.9v2.1h4v.7ZM1025.9,405.3v-1.8h-5v1.8h5Z"/>
              <path class="st29" d="M1028.6,407.9h3.4v-3.4h.8v3.4h4.5v.7h-8.7v-.7ZM1036.3,402.3c0,1.2,0,2.5-.4,4.4h-.9c.4-1.9.4-3.3.4-4.4v-.3h-5.9v-.7h6.7v1Z"/>
            </g>
            <g class="st15">
              <path class="st29" d="M1044,407.1l-.5.7c-1.1-.6-2-1.7-2.4-3.1-.4,1.4-1.3,2.7-2.4,3.2l-.5-.7c1.4-.7,2.5-2.5,2.5-4.3v-1.7h.9v1.7c0,1.7,1.1,3.5,2.5,4.1ZM1042.9,403.7h2.3v-3.3h.8v9.6h-.8v-5.6h-2.3v-.7Z"/>
            </g>
          </g>
          <path class="st27" d="M64.2,365.1h448.5v.4H64.2v-.4Z"/>
          <path class="st27" d="M64,358.1h.5v7.2h-.5v-7.2Z"/>
          <g class="st15">
            <g class="st15">
              <path class="st25" d="M48.9,365.8c0-3.2,1.3-5.1,3.5-5.1s3.5,1.9,3.5,5.1-1.3,5.1-3.5,5.1-3.5-1.8-3.5-5.1ZM52.3,369.8c1.4,0,2.3-1.4,2.3-4,0-2.6-.8-4-2.3-4-1.4,0-2.3,1.5-2.3,4,0,2.6.8,4,2.3,4Z"/>
            </g>
          </g>
          <g class="st15">
            <g class="st15">
              <path class="st25" d="M30.7,311.3h1.2c0,.9,1,1.5,2,1.5,1.3,0,2.2-.9,2.2-2.2s-1-2.2-2.3-2.2c-.8,0-1.5.2-1.8.9h-1.2l.7-5.4h5.4v1.1h-4.3l-.4,2.9h0c.4-.3,1.1-.6,1.8-.6,1.9,0,3.3,1.4,3.3,3.3,0,1.9-1.4,3.3-3.4,3.3s-3.1-1.1-3.2-2.6Z"/>
              <path class="st25" d="M38.9,308.8c0-3.2,1.3-5.1,3.5-5.1s3.5,1.9,3.5,5.1-1.3,5.1-3.5,5.1-3.5-1.8-3.5-5.1ZM42.3,312.8c1.4,0,2.3-1.4,2.3-4,0-2.6-.8-4-2.3-4-1.4,0-2.3,1.5-2.3,4,0,2.6.8,4,2.3,4Z"/>
              <path class="st25" d="M47.2,308.8c0-3.2,1.3-5.1,3.5-5.1s3.5,1.9,3.5,5.1-1.3,5.1-3.5,5.1-3.5-1.8-3.5-5.1ZM50.7,312.8c1.4,0,2.3-1.4,2.3-4,0-2.6-.8-4-2.3-4-1.4,0-2.3,1.5-2.3,4,0,2.6.8,4,2.3,4Z"/>
            </g>
          </g>
          <g class="st15">
            <g class="st15">
              <path class="st25" d="M24.1,256.1h-1.2v-8.6h0l-2.4,1.6v-1.2l2.5-1.6h1.2v9.9Z"/>
              <path class="st25" d="M26.5,251.1c0-3.2,1.3-5.1,3.5-5.1s3.5,1.9,3.5,5.1-1.3,5.1-3.5,5.1-3.5-1.8-3.5-5.1ZM30,255.1c1.4,0,2.3-1.4,2.3-4,0-2.6-.8-4-2.3-4-1.4,0-2.3,1.5-2.3,4,0,2.6.8,4,2.3,4Z"/>
              <path class="st25" d="M34.9,251.1c0-3.2,1.3-5.1,3.5-5.1s3.5,1.9,3.5,5.1-1.3,5.1-3.5,5.1-3.5-1.8-3.5-5.1ZM38.3,255.1c1.4,0,2.3-1.4,2.3-4,0-2.6-.8-4-2.3-4-1.4,0-2.3,1.5-2.3,4,0,2.6.8,4,2.3,4Z"/>
              <path class="st25" d="M43.2,251.1c0-3.2,1.3-5.1,3.5-5.1s3.5,1.9,3.5,5.1-1.3,5.1-3.5,5.1-3.5-1.8-3.5-5.1ZM46.7,255.1c1.4,0,2.3-1.4,2.3-4,0-2.6-.8-4-2.3-4-1.4,0-2.3,1.5-2.3,4,0,2.6.8,4,2.3,4Z"/>
            </g>
          </g>
          <g class="st15">
            <g class="st15">
              <path class="st25" d="M24.1,198.4h-1.2v-8.6h0l-2.4,1.6v-1.2l2.5-1.6h1.2v9.9Z"/>
              <path class="st25" d="M26.8,195.9h1.2c0,.9,1,1.5,2,1.5,1.3,0,2.2-.9,2.2-2.2s-1-2.2-2.3-2.2c-.8,0-1.5.2-1.8.9h-1.2l.7-5.4h5.4v1.1h-4.3l-.4,2.9h0c.4-.3,1.1-.6,1.8-.6,1.9,0,3.3,1.4,3.3,3.3,0,1.9-1.4,3.3-3.4,3.3s-3.1-1.1-3.2-2.6Z"/>
              <path class="st25" d="M34.9,193.4c0-3.2,1.3-5.1,3.5-5.1s3.5,1.9,3.5,5.1-1.3,5.1-3.5,5.1-3.5-1.8-3.5-5.1ZM38.3,197.4c1.4,0,2.3-1.4,2.3-4,0-2.6-.8-4-2.3-4-1.4,0-2.3,1.5-2.3,4,0,2.6.8,4,2.3,4Z"/>
              <path class="st25" d="M43.2,193.4c0-3.2,1.3-5.1,3.5-5.1s3.5,1.9,3.5,5.1-1.3,5.1-3.5,5.1-3.5-1.8-3.5-5.1ZM46.7,197.4c1.4,0,2.3-1.4,2.3-4,0-2.6-.8-4-2.3-4-1.4,0-2.3,1.5-2.3,4,0,2.6.8,4,2.3,4Z"/>
            </g>
          </g>
          <g class="st15">
            <g class="st15">
              <path class="st25" d="M20.6,139.8l3.4-3.6c1.2-1.2,1.7-1.9,1.7-2.8,0-1-.9-1.7-2-1.7-1.2,0-1.9.8-1.9,1.9h-1.2c0-1.8,1.3-2.9,3.1-2.9s3.1,1.2,3.1,2.7c0,1.1-.5,2-2.3,3.8l-2.3,2.3h0c0,0,4.7,0,4.7,0v1.1h-6.4v-.9Z"/>
              <path class="st25" d="M28.6,135.7c0-3.2,1.3-5.1,3.5-5.1s3.5,1.9,3.5,5.1-1.3,5.1-3.5,5.1-3.5-1.8-3.5-5.1ZM32.1,139.7c1.4,0,2.3-1.4,2.3-4,0-2.6-.8-4-2.3-4-1.4,0-2.3,1.5-2.3,4,0,2.6.8,4,2.3,4Z"/>
              <path class="st25" d="M37,135.7c0-3.2,1.3-5.1,3.5-5.1s3.5,1.9,3.5,5.1-1.3,5.1-3.5,5.1-3.5-1.8-3.5-5.1ZM40.4,139.7c1.4,0,2.3-1.4,2.3-4,0-2.6-.8-4-2.3-4-1.4,0-2.3,1.5-2.3,4,0,2.6.8,4,2.3,4Z"/>
              <path class="st25" d="M45.3,135.7c0-3.2,1.3-5.1,3.5-5.1s3.5,1.9,3.5,5.1-1.3,5.1-3.5,5.1-3.5-1.8-3.5-5.1ZM48.8,139.7c1.4,0,2.3-1.4,2.3-4,0-2.6-.8-4-2.3-4-1.4,0-2.3,1.5-2.3,4,0,2.6.8,4,2.3,4Z"/>
            </g>
          </g>
          <g class="st15">
            <g class="st15">
              <path class="st25" d="M20.6,82.1l3.4-3.6c1.2-1.2,1.7-1.9,1.7-2.8,0-1-.9-1.7-2-1.7-1.2,0-1.9.8-1.9,1.9h-1.2c0-1.8,1.3-2.9,3.1-2.9s3.1,1.2,3.1,2.7c0,1.1-.5,2-2.3,3.8l-2.3,2.3h0c0,0,4.7,0,4.7,0v1.1h-6.4v-.9Z"/>
              <path class="st25" d="M28.8,80.5h1.2c0,.9,1,1.5,2,1.5,1.3,0,2.2-.9,2.2-2.2s-1-2.2-2.3-2.2c-.8,0-1.5.2-1.8.9h-1.2l.7-5.4h5.4v1.1h-4.3l-.4,2.9h0c.4-.3,1.1-.6,1.8-.6,1.9,0,3.3,1.4,3.3,3.3,0,1.9-1.4,3.3-3.4,3.3s-3.1-1.1-3.2-2.6Z"/>
              <path class="st25" d="M37,78c0-3.2,1.3-5.1,3.5-5.1s3.5,1.9,3.5,5.1-1.3,5.1-3.5,5.1-3.5-1.8-3.5-5.1ZM40.4,82c1.4,0,2.3-1.4,2.3-4,0-2.6-.8-4-2.3-4-1.4,0-2.3,1.5-2.3,4,0,2.6.8,4,2.3,4Z"/>
              <path class="st25" d="M45.3,78c0-3.2,1.3-5.1,3.5-5.1s3.5,1.9,3.5,5.1-1.3,5.1-3.5,5.1-3.5-1.8-3.5-5.1ZM48.8,82c1.4,0,2.3-1.4,2.3-4,0-2.6-.8-4-2.3-4-1.4,0-2.3,1.5-2.3,4,0,2.6.8,4,2.3,4Z"/>
            </g>
          </g>
          <path class="st27" d="M64,76.8h.5v288.5h-.5V76.8Z"/>
          <path class="st27" d="M64.2,365.1h12.1v.4h-12.1v-.4Z"/>
          <path class="st27" d="M64.2,307.4h8.4v.4h-8.4v-.4Z"/>
          <path class="st27" d="M64.2,249.7h8.4v.4h-8.4v-.4Z"/>
          <path class="st27" d="M64.2,192h8.4v.4h-8.4v-.4Z"/>
          <path class="st27" d="M64.2,134.3h8.4v.4h-8.4v-.4Z"/>
          <path class="st27" d="M64.2,76.6h8.4v.4h-8.4v-.4Z"/>
          <path class="st12" d="M465,361.8h36.4v3.5h-36.4v-3.5Z"/>
          <path class="st23" d="M421.8,348h37.1v17.3h-37.1v-17.3Z"/>
          <path class="st12" d="M358.4,350.2h37.1v15.2h-37.1v-15.2Z"/>
          <path class="st23" d="M315.6,176.8h37.1v188.6h-37.1v-188.6Z"/>
          <path class="st12" d="M252.3,355.3h37.1v10h-37.1v-10Z"/>
          <path class="st23" d="M209.5,318.6h37.1v46.7h-37.1v-46.7Z"/>
          <path class="st12" d="M146.1,339.3h37.1v26.1h-37.1v-26.1Z"/>
          <path class="st23" d="M103.3,112.7h37.1v252.6h-37.1V112.7Z"/>
          <path class="st9" d="M121.8,112.7l38.3,198.1"/>
          <path class="st26" d="M158.1,310.7l2.6,3,1.3-3.7-3.9.7Z"/>
          <g class="st22">
            <g>
              <path class="st10" d="M126.2,112.7c0,2-1.9,3.6-4.3,3.6s-4.3-1.6-4.3-3.6,1.9-3.6,4.3-3.6,4.3,1.6,4.3,3.6"/>
              <ellipse class="st9" cx="121.9" cy="112.7" rx="4.3" ry="3.6"/>
            </g>
          </g>
          <g class="st15">
            <g class="st15">
              <path class="st17" d="M106.3,97.9l3.4-3.6c1.2-1.2,1.7-1.9,1.7-2.8,0-1-.9-1.7-2-1.7-1.2,0-1.9.8-1.9,1.9h-1.2c0-1.8,1.3-2.9,3.1-2.9s3.1,1.2,3.1,2.7c0,1.1-.5,2-2.3,3.8l-2.3,2.3h0c0,0,4.7,0,4.7,0v1.1h-6.4v-.9Z"/>
            </g>
            <g class="st15">
              <path class="st17" d="M115.1,101.6h-1l.8-3.7h1.3l-1.1,3.7Z"/>
            </g>
            <g class="st15">
              <path class="st17" d="M121.7,98.8h-1.2v-8.6h0l-2.4,1.6v-1.2l2.5-1.6h1.2v9.9Z"/>
            </g>
            <g class="st15">
              <path class="st17" d="M124.1,96.2c0-1.3.9-2.3,2-2.5h0c-1-.3-1.6-1.2-1.6-2.3,0-1.5,1.3-2.6,3.1-2.6s3.1,1.1,3.1,2.6c0,1.1-.7,2-1.6,2.2h0c1.1.2,2,1.3,2,2.6,0,1.6-1.5,2.8-3.5,2.8s-3.5-1.2-3.5-2.8ZM127.6,97.9c1.4,0,2.3-.7,2.3-1.8s-1-1.9-2.3-1.9-2.3.8-2.3,1.9c0,1,.9,1.7,2.3,1.8ZM127.6,93.2c1.1,0,1.9-.7,1.9-1.7s-.8-1.7-1.9-1.7c-1.2,0-1.9.7-1.9,1.7,0,1,.8,1.7,1.9,1.7Z"/>
            </g>
            <g class="st15">
              <path class="st17" d="M139.7,93.5c0,3.5-1.4,5.5-3.8,5.5s-3-1.1-3.2-2.6h1.2c.2.9.9,1.5,2,1.5,1.6,0,2.6-1.4,2.6-3.8h-.1c-.6.8-1.5,1.3-2.5,1.3-1.8,0-3.2-1.4-3.2-3.3s1.4-3.3,3.5-3.3c1.7,0,3.6,1,3.6,4.7ZM136.1,94.3c1.3,0,2.3-1.1,2.3-2.2s-1-2.2-2.3-2.2-2.3,1-2.3,2.2c0,1.2.9,2.2,2.2,2.2Z"/>
            </g>
          </g>
          <g class="st15">
            <g class="st15">
              <path class="st17" d="M150.8,330.2l3.4-3.6c1.2-1.2,1.7-1.9,1.7-2.8,0-1-.9-1.7-2-1.7-1.2,0-1.9.8-1.9,1.9h-1.2c0-1.8,1.3-2.9,3.1-2.9s3.1,1.2,3.1,2.7c0,1.1-.5,2-2.3,3.8l-2.3,2.3h0c0,0,4.7,0,4.7,0v1.1h-6.4v-.9Z"/>
              <path class="st17" d="M159,330.2l3.4-3.6c1.2-1.2,1.7-1.9,1.7-2.8,0-1-.9-1.7-2-1.7-1.2,0-1.9.8-1.9,1.9h-1.2c0-1.8,1.3-2.9,3.1-2.9s3.1,1.2,3.1,2.7c0,1.1-.5,2-2.3,3.8l-2.3,2.3h0c0,0,4.7,0,4.7,0v1.1h-6.4v-.9Z"/>
            </g>
            <g class="st15">
              <path class="st17" d="M167.3,328.7h1.2c0,.9,1,1.5,2,1.5,1.3,0,2.2-.9,2.2-2.2s-1-2.2-2.3-2.2c-.8,0-1.5.2-1.8.9h-1.2l.7-5.4h5.4v1.1h-4.3l-.4,2.9h0c.4-.3,1.1-.6,1.8-.6,1.9,0,3.3,1.4,3.3,3.3,0,1.9-1.4,3.3-3.4,3.3s-3.1-1.1-3.2-2.6Z"/>
            </g>
            <g class="st15">
              <path class="st17" d="M175.6,330.3c0-.5.4-.9.9-.9s.9.4.9.9c0,.5-.4.9-.9.9-.5,0-.9-.4-.9-.9Z"/>
            </g>
            <g class="st15">
              <path class="st17" d="M179,328.5c0-1.3.9-2.3,2-2.5h0c-1-.3-1.6-1.2-1.6-2.3,0-1.5,1.3-2.6,3.1-2.6s3.1,1.1,3.1,2.6c0,1.1-.7,2-1.6,2.2h0c1.1.2,2,1.3,2,2.6,0,1.6-1.5,2.8-3.5,2.8s-3.5-1.2-3.5-2.8ZM182.5,330.2c1.4,0,2.3-.7,2.3-1.8s-1-1.9-2.3-1.9-2.3.8-2.3,1.9c0,1,.9,1.7,2.3,1.8ZM182.5,325.5c1.1,0,1.9-.7,1.9-1.7s-.8-1.7-1.9-1.7c-1.2,0-1.9.7-1.9,1.7,0,1,.8,1.7,1.9,1.7Z"/>
            </g>
          </g>
          <g class="st15">
            <g class="st15">
              <path class="st17" d="M215.6,304.2l4.5-6.9h1.5v6.8h1.4v1.1h-1.4v2h-1.2v-2h-4.8v-1ZM220.4,304.2v-5.2h-.1l-3.3,5.2h0c0,0,3.5,0,3.5,0Z"/>
            </g>
            <g class="st15">
              <path class="st17" d="M224.3,302.3c0-3.2,1.3-5.1,3.5-5.1s3.5,1.9,3.5,5.1-1.3,5.1-3.5,5.1-3.5-1.8-3.5-5.1ZM227.8,306.3c1.4,0,2.3-1.4,2.3-4,0-2.6-.8-4-2.3-4-1.4,0-2.3,1.5-2.3,4,0,2.6.8,4,2.3,4Z"/>
            </g>
            <g class="st15">
              <path class="st17" d="M232.9,304.8h1.2c0,.9,1,1.5,2,1.5,1.3,0,2.2-.9,2.2-2.2s-1-2.2-2.3-2.2c-.8,0-1.5.2-1.8.9h-1.2l.7-5.4h5.4v1.1h-4.3l-.4,2.9h0c.4-.3,1.1-.6,1.8-.6,1.9,0,3.3,1.4,3.3,3.3,0,1.9-1.4,3.3-3.4,3.3s-3.1-1.1-3.2-2.6Z"/>
            </g>
          </g>
          <g class="st15">
            <g class="st15">
              <path class="st17" d="M263.8,341c0-1.3.9-2.3,2-2.5h0c-1-.3-1.6-1.2-1.6-2.3,0-1.5,1.3-2.6,3.1-2.6s3.1,1.1,3.1,2.6c0,1.1-.7,2-1.6,2.2h0c1.1.2,2,1.3,2,2.6,0,1.6-1.5,2.8-3.5,2.8s-3.5-1.2-3.5-2.8ZM267.3,342.7c1.4,0,2.3-.7,2.3-1.8s-1-1.9-2.3-1.9-2.3.8-2.3,1.9c0,1,.9,1.7,2.3,1.8ZM267.3,338c1.1,0,1.9-.7,1.9-1.7s-.8-1.7-1.9-1.7c-1.2,0-1.9.7-1.9,1.7,0,1,.8,1.7,1.9,1.7Z"/>
            </g>
            <g class="st15">
              <path class="st17" d="M277.3,334.9h0c0,0-5.2,0-5.2,0v-1.1h6.5v1.1l-4.5,8.8h-1.3l4.5-8.7Z"/>
            </g>
          </g>
          <g class="st15">
            <g class="st15">
              <path class="st17" d="M322.7,167.8h-1.2v-8.6h0l-2.4,1.6v-1.2l2.5-1.6h1.2v9.9Z"/>
            </g>
            <g class="st15">
              <path class="st17" d="M325.8,170.6h-1l.8-3.7h1.3l-1.1,3.7Z"/>
            </g>
            <g class="st15">
              <path class="st17" d="M328.8,163.2c0-3.5,1.4-5.5,3.8-5.5s3,1.1,3.2,2.6h-1.2c-.2-.9-.9-1.5-2-1.5-1.6,0-2.6,1.4-2.6,3.8h.1c.6-.8,1.5-1.3,2.5-1.3,1.8,0,3.2,1.4,3.2,3.3s-1.4,3.4-3.4,3.3c-1.7,0-3.6-1-3.6-4.7ZM332.4,166.8c1.3,0,2.2-1,2.3-2.2,0-1.2-.9-2.2-2.2-2.2-1.3,0-2.3,1.1-2.3,2.2,0,1.2,1,2.2,2.3,2.2Z"/>
            </g>
            <g class="st15">
              <path class="st17" d="M337.5,165.3h1.2c0,.9,1,1.5,2.2,1.5s2.2-.7,2.3-1.7c0-1.1-.9-1.8-2.4-1.8h-.8v-1.1h.8c1.2,0,2-.7,2-1.7,0-1-.7-1.6-1.8-1.7-1.1,0-2,.6-2.1,1.6h-1.2c0-1.6,1.5-2.6,3.3-2.6s3,1.2,3,2.7c0,1.1-.6,1.9-1.7,2.2h0c1.3.3,2.1,1.2,2.1,2.4,0,1.6-1.5,2.8-3.4,2.8s-3.4-1.1-3.4-2.6Z"/>
            </g>
            <g class="st15">
              <path class="st17" d="M345.9,164.7l4.5-6.9h1.5v6.8h1.4v1.1h-1.4v2h-1.2v-2h-4.8v-1ZM350.7,164.7v-5.2h-.1l-3.3,5.2h0c0,0,3.5,0,3.5,0Z"/>
            </g>
          </g>
          <g class="st15">
            <g class="st15">
              <path class="st17" d="M367.7,339.3h-1.2v-8.6h0l-2.4,1.6v-1.2l2.5-1.6h1.2v9.9Z"/>
            </g>
            <g class="st15">
              <path class="st17" d="M370.3,336.8h1.2c0,.9,1,1.5,2.2,1.5s2.2-.7,2.3-1.7c0-1.1-.9-1.8-2.4-1.8h-.8v-1.1h.8c1.2,0,2-.7,2-1.7,0-1-.7-1.6-1.8-1.7-1.1,0-2,.6-2.1,1.6h-1.2c0-1.6,1.5-2.6,3.3-2.6s3,1.2,3,2.7c0,1.1-.6,1.9-1.7,2.2h0c1.3.3,2.1,1.2,2.1,2.4,0,1.6-1.5,2.8-3.4,2.8s-3.4-1.1-3.4-2.6Z"/>
            </g>
            <g class="st15">
              <path class="st17" d="M382.5,339.3h-1.2v-8.6h0l-2.4,1.6v-1.2l2.5-1.6h1.2v9.9Z"/>
            </g>
            <g class="st15">
              <path class="st17" d="M385.1,338.5c0-.5.4-.9.9-.9s.9.4.9.9c0,.5-.4.9-.9.9-.5,0-.9-.4-.9-.9Z"/>
            </g>
            <g class="st15">
              <path class="st17" d="M388.7,336.8h1.2c0,.9,1,1.5,2.2,1.5s2.2-.7,2.3-1.7c0-1.1-.9-1.8-2.4-1.8h-.8v-1.1h.8c1.2,0,2-.7,2-1.7,0-1-.7-1.6-1.8-1.7-1.1,0-2,.6-2.1,1.6h-1.2c0-1.6,1.5-2.6,3.3-2.6s3,1.2,3,2.7c0,1.1-.6,1.9-1.7,2.2h0c1.3.3,2.1,1.2,2.1,2.4,0,1.6-1.5,2.8-3.4,2.8s-3.4-1.1-3.4-2.6Z"/>
            </g>
          </g>
          <g class="st15">
            <g class="st15">
              <path class="st17" d="M435.3,339.3h-1.2v-8.6h0l-2.4,1.6v-1.2l2.5-1.6h1.2v9.9Z"/>
            </g>
            <g class="st15">
              <path class="st17" d="M437.9,336.8h1.2c0,.9,1,1.5,2,1.5,1.3,0,2.2-.9,2.2-2.2s-1-2.2-2.3-2.2c-.8,0-1.5.2-1.8.9h-1.2l.7-5.4h5.4v1.1h-4.3l-.4,2.9h0c.4-.3,1.1-.6,1.8-.6,1.9,0,3.3,1.4,3.3,3.3,0,1.9-1.4,3.3-3.4,3.3s-3.1-1.1-3.2-2.6Z"/>
            </g>
            <g class="st15">
              <path class="st17" d="M446,334.4c0-3.2,1.3-5.1,3.5-5.1s3.5,1.9,3.5,5.1-1.3,5.1-3.5,5.1-3.5-1.8-3.5-5.1ZM449.5,338.3c1.4,0,2.3-1.4,2.3-4,0-2.6-.8-4-2.3-4-1.4,0-2.3,1.5-2.3,4,0,2.6.8,4,2.3,4Z"/>
            </g>
          </g>
          <g class="st15">
            <g class="st15">
              <path class="st17" d="M481.6,349h0c0,0-5.2,0-5.2,0v-1.1h6.5v1.1l-4.5,8.8h-1.3l4.5-8.7Z"/>
            </g>
            <g class="st15">
              <path class="st17" d="M484.5,355.3h1.2c0,.9,1,1.5,2,1.5,1.3,0,2.2-.9,2.2-2.2s-1-2.2-2.3-2.2c-.8,0-1.5.2-1.8.9h-1.2l.7-5.4h5.4v1.1h-4.3l-.4,2.9h0c.4-.3,1.1-.6,1.8-.6,1.9,0,3.3,1.4,3.3,3.3,0,1.9-1.4,3.3-3.4,3.3s-3.1-1.1-3.2-2.6Z"/>
            </g>
          </g>
          <g class="st15">
            <g class="st15">
              <path class="st11" d="M156,252.3c0-1.8,1.3-3.3,2.9-3.6h0c-1.4-.4-2.3-1.7-2.3-3.2,0-2.2,1.9-3.8,4.5-3.8s4.5,1.6,4.5,3.8c0,1.5-1,2.8-2.3,3.2h0c1.6.3,2.9,1.8,2.9,3.7,0,2.3-2.1,3.9-5,3.9s-5-1.7-5-3.9ZM161,254.8c2,0,3.3-1,3.3-2.5s-1.4-2.7-3.3-2.7-3.3,1.2-3.3,2.7c0,1.5,1.2,2.5,3.3,2.5ZM161,248.1c1.6,0,2.8-1,2.8-2.4s-1.1-2.4-2.8-2.4c-1.7,0-2.8.9-2.8,2.4,0,1.4,1.2,2.4,2.8,2.4Z"/>
            </g>
            <g class="st15">
              <path class="st11" d="M178.2,248.5c0,5-2.1,7.8-5.4,7.8s-4.2-1.5-4.6-3.8h1.7c.3,1.3,1.3,2.2,2.9,2.2,2.3,0,3.7-2,3.7-5.4h-.2c-.8,1.2-2.1,1.9-3.6,1.9-2.5,0-4.6-1.9-4.6-4.7s1.9-4.8,4.9-4.7c2.4,0,5.1,1.5,5.1,6.7ZM173.1,249.6c1.8,0,3.3-1.5,3.3-3.2s-1.4-3.1-3.2-3.1-3.2,1.4-3.2,3.2c0,1.7,1.3,3.1,3.2,3.1Z"/>
            </g>
            <g class="st15">
              <path class="st11" d="M180.6,254.9c0-.7.6-1.2,1.2-1.2s1.3.6,1.2,1.2c0,.7-.6,1.3-1.2,1.3-.7,0-1.3-.6-1.2-1.3Z"/>
            </g>
            <g class="st15">
              <path class="st11" d="M192.7,243.6h0c0,0-7.5,0-7.5,0v-1.6h9.3v1.6l-6.5,12.5h-1.8l6.5-12.5Z"/>
              <path class="st11" d="M196.9,245.1c0-2,1-3.4,2.8-3.4s2.8,1.4,2.8,3.4c0,2-1,3.4-2.8,3.4-1.8,0-2.8-1.4-2.8-3.4ZM208.1,242h1.6l-9.7,14.1h-1.6l9.7-14.1ZM199.8,247.3c1,0,1.4-.9,1.4-2.2s-.4-2.2-1.4-2.2c-.9,0-1.4.9-1.4,2.2s.5,2.2,1.4,2.2ZM208.4,249.5c1.8,0,2.8,1.4,2.8,3.4s-1,3.4-2.8,3.4c-1.8,0-2.9-1.4-2.8-3.4,0-2,1-3.4,2.8-3.4ZM208.4,255.1c.9,0,1.4-.9,1.4-2.2s-.4-2.2-1.4-2.2c-.9,0-1.4.9-1.4,2.2,0,1.3.5,2.2,1.4,2.2Z"/>
              <path class="st11" d="M225.6,242.7h-6.4v-1.3h8.1c0,4.4-3.1,7.5-8.2,8.9l-.6-1.2c4.3-1.2,6.9-3.5,7.2-6.4ZM221,251h11v6.5h-11v-6.5ZM230.5,256.2v-3.9h-7.9v3.9h7.9ZM232,244.6h2.6v1.3h-2.6v4.3h-1.5v-9.9h1.5v4.3Z"/>
            </g>
            <g class="st15">
              <path class="st11" d="M251.6,255.4h-15.9v-1.3h7.1v-4.3h1.5v4.3h7.3v1.3ZM242.8,242.8v-1.3h1.6v1.3c0,2.9,3.4,5.5,6.5,6l-.7,1.3c-2.6-.5-5.4-2.3-6.6-4.8-1.1,2.5-3.9,4.3-6.6,4.8l-.7-1.3c3-.5,6.4-3.1,6.4-6Z"/>
            </g>
          </g>
          <g class="st3">
            <g>
              <path class="st27" d="M621.2,365.5h448.5v-.4h-448.5"/>
              <path class="st27" d="M621.4,365.3v-7.2h-.5v7.2"/>
            </g>
          </g>
          <g class="st15">
            <g class="st15">
              <path class="st25" d="M611.7,367.9c0-2.8,1.1-4.4,3-4.4s3,1.6,3,4.4-1.1,4.4-3,4.4-3-1.6-3-4.4ZM614.7,371.3c1.2,0,1.9-1.2,1.9-3.4,0-2.2-.7-3.4-1.9-3.4-1.2,0-1.9,1.2-1.9,3.4,0,2.2.7,3.4,1.9,3.4Z"/>
            </g>
          </g>
          <g class="st15">
            <g class="st15">
              <path class="st25" d="M567.4,311.3h1.2c0,.9,1,1.5,2.2,1.5s2.2-.7,2.3-1.7c0-1.1-.9-1.8-2.4-1.8h-.8v-1.1h.8c1.2,0,2-.7,2-1.7,0-1-.7-1.6-1.8-1.7-1.1,0-2,.6-2.1,1.6h-1.2c0-1.6,1.5-2.6,3.3-2.6s3,1.2,3,2.7c0,1.1-.6,1.9-1.7,2.2h0c1.3.3,2.1,1.2,2.1,2.4,0,1.6-1.5,2.8-3.4,2.8s-3.4-1.1-3.4-2.6Z"/>
              <path class="st25" d="M575.9,308.8c0-3.2,1.3-5.1,3.5-5.1s3.5,1.9,3.5,5.1-1.3,5.1-3.5,5.1-3.5-1.8-3.5-5.1ZM579.3,312.8c1.4,0,2.3-1.4,2.3-4,0-2.6-.8-4-2.3-4-1.4,0-2.3,1.5-2.3,4,0,2.6.8,4,2.3,4Z"/>
              <path class="st25" d="M584.2,308.8c0-3.2,1.3-5.1,3.5-5.1s3.5,1.9,3.5,5.1-1.3,5.1-3.5,5.1-3.5-1.8-3.5-5.1ZM587.7,312.8c1.4,0,2.3-1.4,2.3-4,0-2.6-.8-4-2.3-4-1.4,0-2.3,1.5-2.3,4,0,2.6.8,4,2.3,4Z"/>
              <path class="st25" d="M592.6,308.8c0-3.2,1.3-5.1,3.5-5.1s3.5,1.9,3.5,5.1-1.3,5.1-3.5,5.1-3.5-1.8-3.5-5.1ZM596,312.8c1.4,0,2.3-1.4,2.3-4,0-2.6-.8-4-2.3-4-1.4,0-2.3,1.5-2.3,4,0,2.6.8,4,2.3,4Z"/>
              <path class="st25" d="M600.9,308.8c0-3.2,1.3-5.1,3.5-5.1s3.5,1.9,3.5,5.1-1.3,5.1-3.5,5.1-3.5-1.8-3.5-5.1ZM604.4,312.8c1.4,0,2.3-1.4,2.3-4,0-2.6-.8-4-2.3-4-1.4,0-2.3,1.5-2.3,4,0,2.6.8,4,2.3,4Z"/>
            </g>
          </g>
          <g class="st15">
            <g class="st15">
              <path class="st25" d="M567.3,251.5c0-3.5,1.4-5.5,3.8-5.5s3,1.1,3.2,2.6h-1.2c-.2-.9-.9-1.5-2-1.5-1.6,0-2.6,1.4-2.6,3.8h.1c.6-.8,1.5-1.3,2.5-1.3,1.8,0,3.2,1.4,3.2,3.3s-1.4,3.4-3.4,3.3c-1.7,0-3.6-1-3.6-4.7ZM570.9,255.1c1.3,0,2.2-1,2.3-2.2,0-1.2-.9-2.2-2.2-2.2-1.3,0-2.3,1.1-2.3,2.2,0,1.2,1,2.2,2.3,2.2Z"/>
              <path class="st25" d="M575.8,251.1c0-3.2,1.3-5.1,3.5-5.1s3.5,1.9,3.5,5.1-1.3,5.1-3.5,5.1-3.5-1.8-3.5-5.1ZM579.3,255.1c1.4,0,2.3-1.4,2.3-4,0-2.6-.8-4-2.3-4-1.4,0-2.3,1.5-2.3,4,0,2.6.8,4,2.3,4Z"/>
              <path class="st25" d="M584.2,251.1c0-3.2,1.3-5.1,3.5-5.1s3.5,1.9,3.5,5.1-1.3,5.1-3.5,5.1-3.5-1.8-3.5-5.1ZM587.6,255.1c1.4,0,2.3-1.4,2.3-4,0-2.6-.8-4-2.3-4-1.4,0-2.3,1.5-2.3,4,0,2.6.8,4,2.3,4Z"/>
              <path class="st25" d="M592.5,251.1c0-3.2,1.3-5.1,3.5-5.1s3.5,1.9,3.5,5.1-1.3,5.1-3.5,5.1-3.5-1.8-3.5-5.1ZM596,255.1c1.4,0,2.3-1.4,2.3-4,0-2.6-.8-4-2.3-4-1.4,0-2.3,1.5-2.3,4,0,2.6.8,4,2.3,4Z"/>
              <path class="st25" d="M600.8,251.1c0-3.2,1.3-5.1,3.5-5.1s3.5,1.9,3.5,5.1-1.3,5.1-3.5,5.1-3.5-1.8-3.5-5.1ZM604.3,255.1c1.4,0,2.3-1.4,2.3-4,0-2.6-.8-4-2.3-4-1.4,0-2.3,1.5-2.3,4,0,2.6.8,4,2.3,4Z"/>
            </g>
          </g>
          <g class="st15">
            <g class="st15">
              <path class="st25" d="M574.3,193c0,3.5-1.4,5.5-3.8,5.5s-3-1.1-3.2-2.6h1.2c.2.9.9,1.5,2,1.5,1.6,0,2.6-1.4,2.6-3.8h-.1c-.6.8-1.5,1.3-2.5,1.3-1.8,0-3.2-1.4-3.2-3.3s1.4-3.3,3.5-3.3c1.7,0,3.6,1,3.6,4.7ZM570.7,193.8c1.3,0,2.3-1.1,2.3-2.2s-1-2.2-2.3-2.2-2.3,1-2.3,2.2c0,1.2.9,2.2,2.2,2.2Z"/>
              <path class="st25" d="M575.8,193.4c0-3.2,1.3-5.1,3.5-5.1s3.5,1.9,3.5,5.1-1.3,5.1-3.5,5.1-3.5-1.8-3.5-5.1ZM579.3,197.4c1.4,0,2.3-1.4,2.3-4,0-2.6-.8-4-2.3-4-1.4,0-2.3,1.5-2.3,4,0,2.6.8,4,2.3,4Z"/>
              <path class="st25" d="M584.2,193.4c0-3.2,1.3-5.1,3.5-5.1s3.5,1.9,3.5,5.1-1.3,5.1-3.5,5.1-3.5-1.8-3.5-5.1ZM587.6,197.4c1.4,0,2.3-1.4,2.3-4,0-2.6-.8-4-2.3-4-1.4,0-2.3,1.5-2.3,4,0,2.6.8,4,2.3,4Z"/>
              <path class="st25" d="M592.5,193.4c0-3.2,1.3-5.1,3.5-5.1s3.5,1.9,3.5,5.1-1.3,5.1-3.5,5.1-3.5-1.8-3.5-5.1ZM596,197.4c1.4,0,2.3-1.4,2.3-4,0-2.6-.8-4-2.3-4-1.4,0-2.3,1.5-2.3,4,0,2.6.8,4,2.3,4Z"/>
              <path class="st25" d="M600.8,193.4c0-3.2,1.3-5.1,3.5-5.1s3.5,1.9,3.5,5.1-1.3,5.1-3.5,5.1-3.5-1.8-3.5-5.1ZM604.3,197.4c1.4,0,2.3-1.4,2.3-4,0-2.6-.8-4-2.3-4-1.4,0-2.3,1.5-2.3,4,0,2.6.8,4,2.3,4Z"/>
            </g>
          </g>
          <g class="st15">
            <g class="st15">
              <path class="st25" d="M560.8,140.7h-1.2v-8.6h0l-2.4,1.6v-1.2l2.5-1.6h1.2v9.9Z"/>
              <path class="st25" d="M563.5,139.8l3.4-3.6c1.2-1.2,1.7-1.9,1.7-2.8,0-1-.9-1.7-2-1.7-1.2,0-1.9.8-1.9,1.9h-1.2c0-1.8,1.3-2.9,3.1-2.9s3.1,1.2,3.1,2.7c0,1.1-.5,2-2.3,3.8l-2.3,2.3h0c0,0,4.7,0,4.7,0v1.1h-6.4v-.9Z"/>
              <path class="st25" d="M571.5,135.7c0-3.2,1.3-5.1,3.5-5.1s3.5,1.9,3.5,5.1-1.3,5.1-3.5,5.1-3.5-1.8-3.5-5.1ZM574.9,139.7c1.4,0,2.3-1.4,2.3-4,0-2.6-.8-4-2.3-4-1.4,0-2.3,1.5-2.3,4,0,2.6.8,4,2.3,4Z"/>
              <path class="st25" d="M579.8,135.7c0-3.2,1.3-5.1,3.5-5.1s3.5,1.9,3.5,5.1-1.3,5.1-3.5,5.1-3.5-1.8-3.5-5.1ZM583.3,139.7c1.4,0,2.3-1.4,2.3-4,0-2.6-.8-4-2.3-4-1.4,0-2.3,1.5-2.3,4,0,2.6.8,4,2.3,4Z"/>
              <path class="st25" d="M588.1,135.7c0-3.2,1.3-5.1,3.5-5.1s3.5,1.9,3.5,5.1-1.3,5.1-3.5,5.1-3.5-1.8-3.5-5.1ZM591.6,139.7c1.4,0,2.3-1.4,2.3-4,0-2.6-.8-4-2.3-4-1.4,0-2.3,1.5-2.3,4,0,2.6.8,4,2.3,4Z"/>
              <path class="st25" d="M596.5,135.7c0-3.2,1.3-5.1,3.5-5.1s3.5,1.9,3.5,5.1-1.3,5.1-3.5,5.1-3.5-1.8-3.5-5.1ZM599.9,139.7c1.4,0,2.3-1.4,2.3-4,0-2.6-.8-4-2.3-4-1.4,0-2.3,1.5-2.3,4,0,2.6.8,4,2.3,4Z"/>
            </g>
          </g>
          <g class="st15">
            <g class="st15">
              <path class="st25" d="M560.8,83h-1.2v-8.6h0l-2.4,1.6v-1.2l2.5-1.6h1.2v9.9Z"/>
              <path class="st25" d="M563.5,80.5h1.2c0,.9,1,1.5,2,1.5,1.3,0,2.2-.9,2.2-2.2s-1-2.2-2.3-2.2c-.8,0-1.5.2-1.8.9h-1.2l.7-5.4h5.4v1.1h-4.3l-.4,2.9h0c.4-.3,1.1-.6,1.8-.6,1.9,0,3.3,1.4,3.3,3.3,0,1.9-1.4,3.3-3.4,3.3s-3.1-1.1-3.2-2.6Z"/>
              <path class="st25" d="M571.6,78c0-3.2,1.3-5.1,3.5-5.1s3.5,1.9,3.5,5.1-1.3,5.1-3.5,5.1-3.5-1.8-3.5-5.1ZM575.1,82c1.4,0,2.3-1.4,2.3-4,0-2.6-.8-4-2.3-4-1.4,0-2.3,1.5-2.3,4,0,2.6.8,4,2.3,4Z"/>
              <path class="st25" d="M579.9,78c0-3.2,1.3-5.1,3.5-5.1s3.5,1.9,3.5,5.1-1.3,5.1-3.5,5.1-3.5-1.8-3.5-5.1ZM583.4,82c1.4,0,2.3-1.4,2.3-4,0-2.6-.8-4-2.3-4-1.4,0-2.3,1.5-2.3,4,0,2.6.8,4,2.3,4Z"/>
              <path class="st25" d="M588.3,78c0-3.2,1.3-5.1,3.5-5.1s3.5,1.9,3.5,5.1-1.3,5.1-3.5,5.1-3.5-1.8-3.5-5.1ZM591.7,82c1.4,0,2.3-1.4,2.3-4,0-2.6-.8-4-2.3-4-1.4,0-2.3,1.5-2.3,4,0,2.6.8,4,2.3,4Z"/>
              <path class="st25" d="M596.6,78c0-3.2,1.3-5.1,3.5-5.1s3.5,1.9,3.5,5.1-1.3,5.1-3.5,5.1-3.5-1.8-3.5-5.1ZM600.1,82c1.4,0,2.3-1.4,2.3-4,0-2.6-.8-4-2.3-4-1.4,0-2.3,1.5-2.3,4,0,2.6.8,4,2.3,4Z"/>
            </g>
          </g>
          <g class="st19">
            <g>
              <path class="st27" d="M621.4,365.3V76.8h-.5v288.5"/>
              <path class="st27" d="M621.2,365.5h12.1v-.4h-12.1"/>
              <path class="st27" d="M621.2,307.8h8.4v-.4h-8.4"/>
              <path class="st27" d="M621.2,250.1h8.4v-.4h-8.4"/>
              <path class="st27" d="M621.2,192.4h8.4v-.4h-8.4"/>
              <path class="st27" d="M621.2,134.7h8.4v-.4h-8.4"/>
              <path class="st27" d="M621.2,77h8.4v-.4h-8.4"/>
              <path class="st0" d="M1024,365.2h43.6c0,.1-43.6.1-43.6.1h0Z"/>
              <path class="st21" d="M1021.5,362.5v2.7h37.2v-2.7h-37.2Z"/>
              <path class="st16" d="M978.8,358.7h37.2v6.5h-37.2v-6.5Z"/>
              <path class="st21" d="M915.4,345h37.2v20.3h-37.2v-20.3Z"/>
              <path class="st16" d="M872.6,164.6h37.2v200.8h-37.2v-200.8Z"/>
              <path class="st21" d="M809.2,358.7h37.2v6.6h-37.2v-6.6Z"/>
              <path class="st16" d="M766.4,326.3h37.2v39.1h-37.2v-39.1Z"/>
              <path class="st21" d="M703,338.3h37.2v27.1h-37.2v-27.1Z"/>
              <path class="st16" d="M660.2,123.3h37.2v242h-37.2V123.3Z"/>
            </g>
          </g>
          <g class="st15">
            <g class="st15">
              <path class="st17" d="M693.6,374.7v-.6h-2.7v-.9h6.5v.9h-2.7v.6c0,1.6,1.2,3.1,3,3.7l-.6.9c-1.4-.5-2.4-1.5-3-2.8-.5,1.4-1.6,2.5-3.1,3.1l-.6-.9c1.8-.6,3.1-2.2,3.1-4ZM692.7,380.3h1.1v2.9h7.1v.9h-8.1v-3.8ZM700.5,381.1h-1.1v-4.7h-2.5v-.9h2.5v-3.4h1.1v8.9Z"/>
            </g>
            <g class="st15">
              <path class="st17" d="M708.8,380.8l-.6.8c-1.2-.7-2.1-1.9-2.5-3.4-.4,1.6-1.3,2.9-2.5,3.7l-.6-.8c1.7-1,2.6-3.1,2.6-5.1v-.6h-2.3v-.9h2.3v-1.8h1v1.8h2.3v.9h-2.3v.6c0,2,1,4,2.7,4.8ZM707.6,377h1.9v-4.5h1v11.2h-1v-5.8h-1.9v-.9ZM711.9,372.2h1v12.2h-1v-12.2Z"/>
            </g>
          </g>
          <g class="st15">
            <g class="st15">
              <path class="st17" d="M796.1,381.7h2.7v-4h1.1v4h2v-4h1.1v4h4.2v.9h-11.1v-.9ZM805.9,374.8c0,1.6,0,3.1-.4,5.4h-1.1c.4-2.3.4-3.9.4-5.4v-.5h-7.5v-.9h8.6v1.4Z"/>
            </g>
            <g class="st15">
              <path class="st17" d="M819.3,378.9h-3v1.5h1.6v3.9h-1.1v-3h-7.4v-.9h1.7v-1.5h-2.9v-.9h11.1v.9ZM813.8,372.5c2.6,0,4.3.9,4.3,2.3,0,1.5-1.7,2.3-4.3,2.3-2.6,0-4.3-.9-4.3-2.3s1.7-2.3,4.3-2.3ZM813.8,376.3c1.9,0,3.2-.6,3.2-1.5,0-.9-1.3-1.5-3.2-1.4-2,0-3.2.5-3.2,1.4,0,.9,1.2,1.5,3.2,1.5ZM815.3,380.5v-1.5h-3v1.5h3Z"/>
            </g>
          </g>
          <g class="st15">
            <g class="st15">
              <path class="st17" d="M899.1,380l-.4-.9c2.1-.7,3.4-1.7,4.1-2.8l-4,.3-.2-.9,4.6-.2c.2-.5.3-.9.3-1.4h-4.3v-.9h5.4c0,3.1-1.6,5.5-5.6,6.8ZM900.8,380.3h1.1v2.9h6.9v.9h-8v-3.8ZM904.7,376.1h2.7v-3.9h1.1v9h-1.1v-4.3h-2.7v-.9Z"/>
              <path class="st17" d="M913.6,373.7v-1.1h1.1v1.1c0,1.6,1.2,3.1,3,3.6l-.6.8c-1.3-.5-2.4-1.4-3-2.7-.5,1.4-1.6,2.4-3.1,3l-.6-.9c1.8-.6,3.1-2.1,3.1-3.9ZM912.7,379.1h7.9v2.9h-6.8v1.3h7.2v.9h-8.3v-3h6.8v-1.2h-6.8v-.9ZM920.6,378.5h-1.1v-3.2h-2.7v-.9h2.7v-2.2h1.1v6.3Z"/>
            </g>
            <g class="st15">
              <path class="st17" d="M929.1,374h-4.7v1.5h4.4v.9h-4.4v1.6c2.6,0,4,0,5.7-.3v.9c-1.7.3-3.2.3-5.8.3h-1v-5.8h5.8v.9ZM928.6,379.9c2.5,0,4.1.8,4.1,2.2,0,1.4-1.6,2.2-4.1,2.2s-4.1-.8-4.1-2.2,1.5-2.2,4.1-2.2ZM928.6,383.5c1.9,0,3-.5,3-1.4,0-.8-1.2-1.3-3-1.3s-3,.5-3,1.3,1.1,1.4,3,1.4ZM931.5,372.2h1.1v7.5h-1.1v-7.5Z"/>
            </g>
          </g>
          <g class="st15">
            <g class="st15">
              <path class="st17" d="M1001.4,380.9l-.6.8c-1.4-.7-2.5-2.1-3.1-3.8-.6,1.8-1.8,3.4-3.1,4.1l-.7-.8c1.8-.9,3.3-3.2,3.3-5.2v-1.6h-2.8v-.9h6.6v.9h-2.7v1.6c0,1.9,1.4,4.1,3.2,4.9ZM1002.5,372.3h1.1v4.9h2v.9h-2v6.3h-1.1v-12.2Z"/>
              <path class="st17" d="M1012.5,374.5h2.7v-2.2h1.1v7.2h-1.1v-1.6h-3.2v-.9h3.2v-1.7h-3c-.8,1.9-2.7,3.3-5.4,4l-.4-.9c3-.8,4.8-2.4,5.1-4.5h-4.5v-.9h5.6c0,.5,0,.9-.2,1.4ZM1008.1,380.1h8.2v4.3h-1.1v-3.5h-7.1v-.9Z"/>
              <path class="st17" d="M1025.9,380.8l-.7.8c-1.4-.7-2.6-2.1-3.2-3.8-.6,1.8-1.8,3.4-3.2,4.1l-.7-.9c1.8-.8,3.3-3.2,3.3-5.5v-2.2h1.1v2.2c0,2.2,1.5,4.4,3.3,5.3ZM1027.3,372.3h1.1v12.2h-1.1v-12.2Z"/>
            </g>
            <g class="st15">
              <path class="st17" d="M1030.4,373.6h3v-1.4h1.1v1.4h3v.9h-7.1v-.9ZM1034,375.1c1.7,0,2.8.9,2.8,2.2,0,1.3-1.2,2.2-2.8,2.2s-2.8-.9-2.8-2.2,1.2-2.2,2.8-2.2ZM1034,378.6c1.1,0,1.8-.5,1.8-1.4s-.7-1.3-1.8-1.3-1.8.5-1.8,1.3.7,1.3,1.8,1.4ZM1032.6,380.3h7.9v4h-7.9v-4ZM1039.4,383.4v-2.2h-5.8v2.2h5.8ZM1040.5,379.6h-1.1v-2.8h-2.1v-.9h2.1v-3.7h1.1v7.4Z"/>
            </g>
          </g>
          <g class="st15">
            <g class="st15">
              <path class="st17" d="M132.6,374.7v-.6h-2.7v-.9h6.5v.9h-2.7v.6c0,1.6,1.2,3.1,3,3.7l-.6.9c-1.4-.5-2.4-1.5-3-2.8-.5,1.4-1.6,2.5-3.1,3.1l-.6-.9c1.8-.6,3.1-2.2,3.1-4ZM131.8,380.3h1.1v2.9h7.1v.9h-8.1v-3.8ZM139.6,381.1h-1.1v-4.7h-2.5v-.9h2.5v-3.4h1.1v8.9Z"/>
            </g>
            <g class="st15">
              <path class="st17" d="M147.8,380.8l-.6.8c-1.2-.7-2.1-1.9-2.5-3.4-.4,1.6-1.3,2.9-2.5,3.7l-.6-.8c1.7-1,2.6-3.1,2.6-5.1v-.6h-2.3v-.9h2.3v-1.8h1v1.8h2.3v.9h-2.3v.6c0,2,1,4,2.7,4.8ZM146.6,377h1.9v-4.5h1v11.2h-1v-5.8h-1.9v-.9ZM150.9,372.2h1v12.2h-1v-12.2Z"/>
            </g>
          </g>
          <g class="st15">
            <g class="st15">
              <path class="st17" d="M235.1,381.7h2.7v-4h1.1v4h2v-4h1.1v4h4.2v.9h-11.1v-.9ZM244.9,374.8c0,1.6,0,3.1-.4,5.4h-1.1c.4-2.3.4-3.9.4-5.4v-.5h-7.5v-.9h8.6v1.4Z"/>
            </g>
            <g class="st15">
              <path class="st17" d="M258.3,378.9h-3v1.5h1.6v3.9h-1.1v-3h-7.4v-.9h1.7v-1.5h-2.9v-.9h11.1v.9ZM252.8,372.5c2.6,0,4.3.9,4.3,2.3,0,1.5-1.7,2.3-4.3,2.3-2.6,0-4.3-.9-4.3-2.3s1.7-2.3,4.3-2.3ZM252.8,376.3c1.9,0,3.2-.6,3.2-1.5,0-.9-1.3-1.5-3.2-1.4-2,0-3.2.5-3.2,1.4,0,.9,1.2,1.5,3.2,1.5ZM254.3,380.5v-1.5h-3v1.5h3Z"/>
            </g>
          </g>
          <g class="st15">
            <g class="st15">
              <path class="st17" d="M338.2,380l-.4-.9c2.1-.7,3.4-1.7,4.1-2.8l-4,.3-.2-.9,4.6-.2c.2-.5.3-.9.3-1.4h-4.3v-.9h5.4c0,3.1-1.6,5.5-5.6,6.8ZM339.8,380.3h1.1v2.9h6.9v.9h-8v-3.8ZM343.7,376.1h2.7v-3.9h1.1v9h-1.1v-4.3h-2.7v-.9Z"/>
              <path class="st17" d="M352.6,373.7v-1.1h1.1v1.1c0,1.6,1.2,3.1,3,3.6l-.6.8c-1.3-.5-2.4-1.4-3-2.7-.5,1.4-1.6,2.4-3.1,3l-.6-.9c1.8-.6,3.1-2.1,3.1-3.9ZM351.7,379.1h7.9v2.9h-6.8v1.3h7.2v.9h-8.3v-3h6.8v-1.2h-6.8v-.9ZM359.6,378.5h-1.1v-3.2h-2.7v-.9h2.7v-2.2h1.1v6.3Z"/>
            </g>
            <g class="st15">
              <path class="st17" d="M368.1,374h-4.7v1.5h4.4v.9h-4.4v1.6c2.6,0,4,0,5.7-.3v.9c-1.7.3-3.2.3-5.8.3h-1v-5.8h5.8v.9ZM367.6,379.9c2.5,0,4.1.8,4.1,2.2,0,1.4-1.6,2.2-4.1,2.2s-4.1-.8-4.1-2.2,1.5-2.2,4.1-2.2ZM367.6,383.5c1.9,0,3-.5,3-1.4,0-.8-1.2-1.3-3-1.3s-3,.5-3,1.3,1.1,1.4,3,1.4ZM370.6,372.2h1.1v7.5h-1.1v-7.5Z"/>
            </g>
          </g>
          <g class="st15">
            <g class="st15">
              <path class="st17" d="M440.4,380.9l-.6.8c-1.4-.7-2.5-2.1-3.1-3.8-.6,1.8-1.8,3.4-3.1,4.1l-.7-.8c1.8-.9,3.3-3.2,3.3-5.2v-1.6h-2.8v-.9h6.6v.9h-2.7v1.6c0,1.9,1.4,4.1,3.2,4.9ZM441.5,372.3h1.1v4.9h2v.9h-2v6.3h-1.1v-12.2Z"/>
              <path class="st17" d="M451.5,374.5h2.7v-2.2h1.1v7.2h-1.1v-1.6h-3.2v-.9h3.2v-1.7h-3c-.8,1.9-2.7,3.3-5.4,4l-.4-.9c3-.8,4.8-2.4,5.1-4.5h-4.5v-.9h5.6c0,.5,0,.9-.2,1.4ZM447.1,380.1h8.2v4.3h-1.1v-3.5h-7.1v-.9Z"/>
              <path class="st17" d="M465,380.8l-.7.8c-1.4-.7-2.6-2.1-3.2-3.8-.6,1.8-1.8,3.4-3.2,4.1l-.7-.9c1.8-.8,3.3-3.2,3.3-5.5v-2.2h1.1v2.2c0,2.2,1.5,4.4,3.3,5.3ZM466.3,372.3h1.1v12.2h-1.1v-12.2Z"/>
            </g>
            <g class="st15">
              <path class="st17" d="M469.5,373.6h3v-1.4h1.1v1.4h3v.9h-7.1v-.9ZM473,375.1c1.7,0,2.8.9,2.8,2.2,0,1.3-1.2,2.2-2.8,2.2s-2.8-.9-2.8-2.2,1.2-2.2,2.8-2.2ZM473,378.6c1.1,0,1.8-.5,1.8-1.4s-.7-1.3-1.8-1.3-1.8.5-1.8,1.3.7,1.3,1.8,1.4ZM471.6,380.3h7.9v4h-7.9v-4ZM478.5,383.4v-2.2h-5.8v2.2h5.8ZM479.5,379.6h-1.1v-2.8h-2.1v-.9h2.1v-3.7h1.1v7.4Z"/>
            </g>
          </g>
          <g class="st1">
            <g>
              <path class="st9" d="M679.4,124.7l37.3,186.1"/>
              <path class="st26" d="M714.6,310.7l2.6,3,1.3-3.7-3.9.8Z"/>
              <path class="st10" d="M684.1,123.6c0,2-1.9,3.6-4.3,3.6s-4.3-1.6-4.3-3.6,1.9-3.6,4.3-3.6,4.3,1.6,4.3,3.6"/>
              <ellipse class="st9" cx="679.8" cy="123.6" rx="4.3" ry="3.6"/>
            </g>
          </g>
          <g class="st15">
            <g class="st15">
              <path class="st17" d="M660.1,110.8h-1.2v-8.6h0l-2.4,1.6v-1.2l2.5-1.6h1.2v9.9Z"/>
            </g>
            <g class="st15">
              <path class="st17" d="M662.7,109.8l3.4-3.6c1.2-1.2,1.7-1.9,1.7-2.8,0-1-.9-1.7-2-1.7-1.2,0-1.9.8-1.9,1.9h-1.2c0-1.8,1.3-2.9,3.1-2.9s3.1,1.2,3.1,2.7c0,1.1-.5,2-2.3,3.8l-2.3,2.3h0c0,0,4.7,0,4.7,0v1.1h-6.4v-.9Z"/>
            </g>
            <g class="st15">
              <path class="st17" d="M670.9,108.3h1.2c0,.9,1,1.5,2,1.5,1.3,0,2.2-.9,2.2-2.2s-1-2.2-2.3-2.2c-.8,0-1.5.2-1.8.9h-1.2l.7-5.4h5.4v1.1h-4.3l-.4,2.9h0c.4-.3,1.1-.6,1.8-.6,1.9,0,3.3,1.4,3.3,3.3,0,1.9-1.4,3.3-3.4,3.3s-3.1-1.1-3.2-2.6Z"/>
            </g>
            <g class="st15">
              <path class="st17" d="M679.8,113.6h-1l.8-3.7h1.3l-1.1,3.7Z"/>
            </g>
            <g class="st15">
              <path class="st17" d="M682.7,108.1c0-1.3.9-2.3,2-2.5h0c-1-.3-1.6-1.2-1.6-2.3,0-1.5,1.3-2.6,3.1-2.6s3.1,1.1,3.1,2.6c0,1.1-.7,2-1.6,2.2h0c1.1.2,2,1.3,2,2.6,0,1.6-1.5,2.8-3.5,2.8s-3.5-1.2-3.5-2.8ZM686.2,109.8c1.4,0,2.3-.7,2.3-1.8s-1-1.9-2.3-1.9-2.3.8-2.3,1.9c0,1,.9,1.7,2.3,1.8ZM686.2,105.1c1.1,0,1.9-.7,1.9-1.7s-.8-1.7-1.9-1.7c-1.2,0-1.9.7-1.9,1.7,0,1,.8,1.7,1.9,1.7Z"/>
            </g>
            <g class="st15">
              <path class="st17" d="M694.9,110.8h-1.2v-8.6h0l-2.4,1.6v-1.2l2.5-1.6h1.2v9.9Z"/>
            </g>
            <g class="st15">
              <path class="st17" d="M702.4,102h0c0,0-5.2,0-5.2,0v-1.1h6.5v1.1l-4.5,8.8h-1.3l4.5-8.7Z"/>
            </g>
          </g>
          <g class="st15">
            <g class="st15">
              <path class="st17" d="M705.5,331.1h-1.2v-8.6h0l-2.4,1.6v-1.2l2.5-1.6h1.2v9.9Z"/>
            </g>
            <g class="st15">
              <path class="st17" d="M707.9,328.1l4.5-6.9h1.5v6.8h1.4v1.1h-1.4v2h-1.2v-2h-4.8v-1ZM712.7,328v-5.2h-.1l-3.3,5.2h0c0,0,3.5,0,3.5,0Z"/>
            </g>
            <g class="st15">
              <path class="st17" d="M717.4,333.9h-1l.8-3.7h1.3l-1.1,3.7Z"/>
            </g>
            <g class="st15">
              <path class="st17" d="M720.3,326.2c0-3.2,1.3-5.1,3.5-5.1s3.5,1.9,3.5,5.1-1.3,5.1-3.5,5.1-3.5-1.8-3.5-5.1ZM723.7,330.2c1.4,0,2.3-1.4,2.3-4,0-2.6-.8-4-2.3-4-1.4,0-2.3,1.5-2.3,4,0,2.6.8,4,2.3,4Z"/>
              <path class="st17" d="M728.7,326.6c0-3.5,1.4-5.5,3.8-5.5s3,1.1,3.2,2.6h-1.2c-.2-.9-.9-1.5-2-1.5-1.6,0-2.6,1.4-2.6,3.8h.1c.6-.8,1.5-1.3,2.5-1.3,1.8,0,3.2,1.4,3.2,3.3s-1.4,3.4-3.4,3.3c-1.7,0-3.6-1-3.6-4.7ZM732.3,330.2c1.3,0,2.2-1,2.3-2.2,0-1.2-.9-2.2-2.2-2.2-1.3,0-2.3,1.1-2.3,2.2,0,1.2,1,2.2,2.3,2.2Z"/>
            </g>
            <g class="st15">
              <path class="st17" d="M742.3,322.4h0c0,0-5.2,0-5.2,0v-1.1h6.5v1.1l-4.5,8.8h-1.3l4.5-8.7Z"/>
            </g>
          </g>
          <g class="st15">
            <g class="st15">
              <path class="st17" d="M764.1,319.5l3.4-3.6c1.2-1.2,1.7-1.9,1.7-2.8,0-1-.9-1.7-2-1.7-1.2,0-1.9.8-1.9,1.9h-1.2c0-1.8,1.3-2.9,3.1-2.9s3.1,1.2,3.1,2.7c0,1.1-.5,2-2.3,3.8l-2.3,2.3h0c0,0,4.7,0,4.7,0v1.1h-6.4v-.9Z"/>
            </g>
            <g class="st15">
              <path class="st17" d="M772.1,315.5c0-3.2,1.3-5.1,3.5-5.1s3.5,1.9,3.5,5.1-1.3,5.1-3.5,5.1-3.5-1.8-3.5-5.1ZM775.6,319.5c1.4,0,2.3-1.4,2.3-4,0-2.6-.8-4-2.3-4-1.4,0-2.3,1.5-2.3,4,0,2.6.8,4,2.3,4Z"/>
            </g>
            <g class="st15">
              <path class="st17" d="M781.2,323.2h-1l.8-3.7h1.3l-1.1,3.7Z"/>
            </g>
            <g class="st15">
              <path class="st17" d="M784.3,317.9h1.2c0,.9,1,1.5,2.2,1.5s2.2-.7,2.3-1.7c0-1.1-.9-1.8-2.4-1.8h-.8v-1.1h.8c1.2,0,2-.7,2-1.7,0-1-.7-1.6-1.8-1.7-1.1,0-2,.6-2.1,1.6h-1.2c0-1.6,1.5-2.6,3.3-2.6s3,1.2,3,2.7c0,1.1-.6,1.9-1.7,2.2h0c1.3.3,2.1,1.2,2.1,2.4,0,1.6-1.5,2.8-3.4,2.8s-3.4-1.1-3.4-2.6Z"/>
            </g>
            <g class="st15">
              <path class="st17" d="M792.7,315.5c0-3.2,1.3-5.1,3.5-5.1s3.5,1.9,3.5,5.1-1.3,5.1-3.5,5.1-3.5-1.8-3.5-5.1ZM796.2,319.5c1.4,0,2.3-1.4,2.3-4,0-2.6-.8-4-2.3-4-1.4,0-2.3,1.5-2.3,4,0,2.6.8,4,2.3,4Z"/>
            </g>
            <g class="st15">
              <path class="st17" d="M801.3,317.9h1.2c0,.9,1,1.5,2,1.5,1.3,0,2.2-.9,2.2-2.2s-1-2.2-2.3-2.2c-.8,0-1.5.2-1.8.9h-1.2l.7-5.4h5.4v1.1h-4.3l-.4,2.9h0c.4-.3,1.1-.6,1.8-.6,1.9,0,3.3,1.4,3.3,3.3,0,1.9-1.4,3.3-3.4,3.3s-3.1-1.1-3.2-2.6Z"/>
            </g>
          </g>
          <g class="st15">
            <g class="st15">
              <path class="st17" d="M810.2,351h1.2c0,.9,1,1.5,2.2,1.5s2.2-.7,2.3-1.7c0-1.1-.9-1.8-2.4-1.8h-.8v-1.1h.8c1.2,0,2-.7,2-1.7,0-1-.7-1.6-1.8-1.7-1.1,0-2,.6-2.1,1.6h-1.2c0-1.6,1.5-2.6,3.3-2.6s3,1.2,3,2.7c0,1.1-.6,1.9-1.7,2.2h0c1.3.3,2.1,1.2,2.1,2.4,0,1.6-1.5,2.8-3.4,2.8s-3.4-1.1-3.4-2.6Z"/>
            </g>
            <g class="st15">
              <path class="st17" d="M819.4,356.3h-1l.8-3.7h1.3l-1.1,3.7Z"/>
            </g>
            <g class="st15">
              <path class="st17" d="M822.2,350.5l4.5-6.9h1.5v6.8h1.4v1.1h-1.4v2h-1.2v-2h-4.8v-1ZM827,350.4v-5.2h-.1l-3.3,5.2h0c0,0,3.5,0,3.5,0Z"/>
              <path class="st17" d="M831.2,351h1.2c0,.9,1,1.5,2,1.5,1.3,0,2.2-.9,2.2-2.2s-1-2.2-2.3-2.2c-.8,0-1.5.2-1.8.9h-1.2l.7-5.4h5.4v1.1h-4.3l-.4,2.9h0c.4-.3,1.1-.6,1.8-.6,1.9,0,3.3,1.4,3.3,3.3,0,1.9-1.4,3.3-3.4,3.3s-3.1-1.1-3.2-2.6Z"/>
            </g>
            <g class="st15">
              <path class="st17" d="M839.3,350.5l4.5-6.9h1.5v6.8h1.4v1.1h-1.4v2h-1.2v-2h-4.8v-1ZM844.1,350.4v-5.2h-.1l-3.3,5.2h0c0,0,3.5,0,3.5,0Z"/>
            </g>
          </g>
          <g class="st15">
            <g class="st15">
              <path class="st17" d="M871.8,154.7h-1.2v-8.6h0l-2.4,1.6v-1.2l2.5-1.6h1.2v9.9Z"/>
              <path class="st17" d="M874.2,149.8c0-3.2,1.3-5.1,3.5-5.1s3.5,1.9,3.5,5.1-1.3,5.1-3.5,5.1-3.5-1.8-3.5-5.1ZM877.6,153.8c1.4,0,2.3-1.4,2.3-4,0-2.6-.8-4-2.3-4-1.4,0-2.3,1.5-2.3,4,0,2.6.8,4,2.3,4Z"/>
            </g>
            <g class="st15">
              <path class="st17" d="M882.5,151.7l4.5-6.9h1.5v6.8h1.4v1.1h-1.4v2h-1.2v-2h-4.8v-1ZM887.3,151.6v-5.2h-.1l-3.3,5.2h0c0,0,3.5,0,3.5,0Z"/>
            </g>
            <g class="st15">
              <path class="st17" d="M892,157.5h-1l.8-3.7h1.3l-1.1,3.7Z"/>
            </g>
            <g class="st15">
              <path class="st17" d="M895.1,152.2h1.2c0,.9,1,1.5,2.2,1.5s2.2-.7,2.3-1.7c0-1.1-.9-1.8-2.4-1.8h-.8v-1.1h.8c1.2,0,2-.7,2-1.7,0-1-.7-1.6-1.8-1.7-1.1,0-2,.6-2.1,1.6h-1.2c0-1.6,1.5-2.6,3.3-2.6s3,1.2,3,2.7c0,1.1-.6,1.9-1.7,2.2h0c1.3.3,2.1,1.2,2.1,2.4,0,1.6-1.5,2.8-3.4,2.8s-3.4-1.1-3.4-2.6Z"/>
            </g>
            <g class="st15">
              <path class="st17" d="M903.5,152.1c0-1.3.9-2.3,2-2.5h0c-1-.3-1.6-1.2-1.6-2.3,0-1.5,1.3-2.6,3.1-2.6s3.1,1.1,3.1,2.6c0,1.1-.7,2-1.6,2.2h0c1.1.2,2,1.3,2,2.6,0,1.6-1.5,2.8-3.5,2.8s-3.5-1.2-3.5-2.8ZM907,153.8c1.4,0,2.3-.7,2.3-1.8s-1-1.9-2.3-1.9-2.3.8-2.3,1.9c0,1,.9,1.7,2.3,1.8ZM907,149.1c1.1,0,1.9-.7,1.9-1.7s-.8-1.7-1.9-1.7c-1.2,0-1.9.7-1.9,1.7,0,1,.8,1.7,1.9,1.7Z"/>
            </g>
            <g class="st15">
              <path class="st17" d="M915.7,154.7h-1.2v-8.6h0l-2.4,1.6v-1.2l2.5-1.6h1.2v9.9Z"/>
            </g>
          </g>
          <g class="st15">
            <g class="st15">
              <path class="st17" d="M917.6,339.3h-1.2v-8.6h0l-2.4,1.6v-1.2l2.5-1.6h1.2v9.9Z"/>
            </g>
            <g class="st15">
              <path class="st17" d="M920,334.3c0-3.2,1.3-5.1,3.5-5.1s3.5,1.9,3.5,5.1-1.3,5.1-3.5,5.1-3.5-1.8-3.5-5.1ZM923.5,338.3c1.4,0,2.3-1.4,2.3-4,0-2.6-.8-4-2.3-4-1.4,0-2.3,1.5-2.3,4,0,2.6.8,4,2.3,4Z"/>
            </g>
            <g class="st15">
              <path class="st17" d="M929.1,342.1h-1l.8-3.7h1.3l-1.1,3.7Z"/>
            </g>
            <g class="st15">
              <path class="st17" d="M932.2,336.8h1.2c0,.9,1,1.5,2,1.5,1.3,0,2.2-.9,2.2-2.2s-1-2.2-2.3-2.2c-.8,0-1.5.2-1.8.9h-1.2l.7-5.4h5.4v1.1h-4.3l-.4,2.9h0c.4-.3,1.1-.6,1.8-.6,1.9,0,3.3,1.4,3.3,3.3,0,1.9-1.4,3.3-3.4,3.3s-3.1-1.1-3.2-2.6Z"/>
              <path class="st17" d="M940.5,336.8h1.2c0,.9,1,1.5,2,1.5,1.3,0,2.2-.9,2.2-2.2s-1-2.2-2.3-2.2c-.8,0-1.5.2-1.8.9h-1.2l.7-5.4h5.4v1.1h-4.3l-.4,2.9h0c.4-.3,1.1-.6,1.8-.6,1.9,0,3.3,1.4,3.3,3.3,0,1.9-1.4,3.3-3.4,3.3s-3.1-1.1-3.2-2.6Z"/>
            </g>
            <g class="st15">
              <path class="st17" d="M948.7,334.7c0-3.5,1.4-5.5,3.8-5.5s3,1.1,3.2,2.6h-1.2c-.2-.9-.9-1.5-2-1.5-1.6,0-2.6,1.4-2.6,3.8h.1c.6-.8,1.5-1.3,2.5-1.3,1.8,0,3.2,1.4,3.2,3.3s-1.4,3.4-3.4,3.3c-1.7,0-3.6-1-3.6-4.7ZM952.3,338.3c1.3,0,2.2-1,2.3-2.2,0-1.2-.9-2.2-2.2-2.2-1.3,0-2.3,1.1-2.3,2.2,0,1.2,1,2.2,2.3,2.2Z"/>
            </g>
          </g>
          <g class="st15">
            <g class="st15">
              <path class="st17" d="M986.3,353.6h-1.2v-8.6h0l-2.4,1.6v-1.2l2.5-1.6h1.2v9.9Z"/>
            </g>
            <g class="st15">
              <path class="st17" d="M989.4,356.4h-1l.8-3.7h1.3l-1.1,3.7Z"/>
            </g>
            <g class="st15">
              <path class="st17" d="M996.1,353.6h-1.2v-8.6h0l-2.4,1.6v-1.2l2.5-1.6h1.2v9.9Z"/>
            </g>
            <g class="st15">
              <path class="st17" d="M998.7,352.7l3.4-3.6c1.2-1.2,1.7-1.9,1.7-2.8,0-1-.9-1.7-2-1.7-1.2,0-1.9.8-1.9,1.9h-1.2c0-1.8,1.3-2.9,3.1-2.9s3.1,1.2,3.1,2.7c0,1.1-.5,2-2.3,3.8l-2.3,2.3h0c0,0,4.7,0,4.7,0v1.1h-6.4v-.9Z"/>
            </g>
            <g class="st15">
              <path class="st17" d="M1006.9,351.2h1.2c0,.9,1,1.5,2,1.5,1.3,0,2.2-.9,2.2-2.2s-1-2.2-2.3-2.2c-.8,0-1.5.2-1.8.9h-1.2l.7-5.4h5.4v1.1h-4.3l-.4,2.9h0c.4-.3,1.1-.6,1.8-.6,1.9,0,3.3,1.4,3.3,3.3,0,1.9-1.4,3.3-3.4,3.3s-3.1-1.1-3.2-2.6Z"/>
            </g>
          </g>
          <g class="st15">
            <g class="st15">
              <path class="st17" d="M1030.8,356.9h1.2c0,.9,1,1.5,2,1.5,1.3,0,2.2-.9,2.2-2.2s-1-2.2-2.3-2.2c-.8,0-1.5.2-1.8.9h-1.2l.7-5.4h5.4v1.1h-4.3l-.4,2.9h0c.4-.3,1.1-.6,1.8-.6,1.9,0,3.3,1.4,3.3,3.3,0,1.9-1.4,3.3-3.4,3.3s-3.1-1.1-3.2-2.6Z"/>
            </g>
            <g class="st15">
              <path class="st17" d="M1039,354.8c0-3.5,1.4-5.5,3.8-5.5s3,1.1,3.2,2.6h-1.2c-.2-.9-.9-1.5-2-1.5-1.6,0-2.6,1.4-2.6,3.8h.1c.6-.8,1.5-1.3,2.5-1.3,1.8,0,3.2,1.4,3.2,3.3s-1.4,3.4-3.4,3.3c-1.7,0-3.6-1-3.6-4.7ZM1042.6,358.4c1.3,0,2.2-1,2.3-2.2,0-1.2-.9-2.2-2.2-2.2-1.3,0-2.3,1.1-2.3,2.2,0,1.2,1,2.2,2.3,2.2Z"/>
            </g>
          </g>
          <g class="st15">
            <g class="st15">
              <path class="st21" d="M714.7,258.2c0-1.8,1.3-3.3,2.9-3.6h0c-1.4-.4-2.3-1.7-2.3-3.2,0-2.2,1.9-3.8,4.5-3.8s4.5,1.6,4.5,3.8c0,1.5-1,2.8-2.3,3.2h0c1.6.3,2.9,1.8,2.9,3.7,0,2.3-2.1,3.9-5,3.9s-5-1.7-5-3.9ZM719.7,260.6c2,0,3.3-1,3.3-2.5s-1.4-2.7-3.3-2.7-3.3,1.2-3.3,2.7c0,1.5,1.2,2.5,3.3,2.5ZM719.7,253.9c1.6,0,2.8-1,2.8-2.4s-1.1-2.4-2.8-2.4c-1.7,0-2.8.9-2.8,2.4,0,1.4,1.2,2.4,2.8,2.4Z"/>
            </g>
            <g class="st15">
              <path class="st21" d="M726.8,258.2c0-1.8,1.3-3.3,2.9-3.6h0c-1.4-.4-2.3-1.7-2.3-3.2,0-2.2,1.9-3.8,4.5-3.8s4.5,1.6,4.5,3.8c0,1.5-1,2.8-2.3,3.2h0c1.6.3,2.9,1.8,2.9,3.7,0,2.3-2.1,3.9-5,3.9s-5-1.7-5-3.9ZM731.8,260.6c2,0,3.3-1,3.3-2.5s-1.4-2.7-3.3-2.7-3.3,1.2-3.3,2.7c0,1.5,1.2,2.5,3.3,2.5ZM731.8,253.9c1.6,0,2.8-1,2.8-2.4s-1.1-2.4-2.8-2.4c-1.7,0-2.8.9-2.8,2.4,0,1.4,1.2,2.4,2.8,2.4Z"/>
            </g>
            <g class="st15">
              <path class="st21" d="M739.2,260.8c0-.7.6-1.2,1.2-1.2s1.3.6,1.2,1.2c0,.7-.6,1.3-1.2,1.3-.7,0-1.3-.6-1.2-1.3Z"/>
            </g>
            <g class="st15">
              <path class="st21" d="M754.2,254.3c0,5-2.1,7.8-5.4,7.8s-4.2-1.5-4.6-3.8h1.7c.3,1.3,1.3,2.2,2.9,2.2,2.3,0,3.7-2,3.7-5.4h-.2c-.8,1.2-2.1,1.9-3.6,1.9-2.5,0-4.6-1.9-4.6-4.7s1.9-4.8,4.9-4.7c2.4,0,5.1,1.5,5.1,6.7ZM749,255.5c1.8,0,3.3-1.5,3.3-3.2s-1.4-3.1-3.2-3.1-3.2,1.4-3.2,3.2c0,1.7,1.3,3.1,3.2,3.1Z"/>
            </g>
            <g class="st15">
              <path class="st21" d="M756.7,250.9c0-2,1-3.4,2.8-3.4s2.8,1.4,2.8,3.4c0,2-1,3.4-2.8,3.4-1.8,0-2.8-1.4-2.8-3.4ZM767.9,247.8h1.6l-9.7,14.1h-1.6l9.7-14.1ZM759.6,253.1c1,0,1.4-.9,1.4-2.2s-.4-2.2-1.4-2.2c-.9,0-1.4.9-1.4,2.2s.5,2.2,1.4,2.2ZM768.2,255.3c1.8,0,2.8,1.4,2.8,3.4s-1,3.4-2.8,3.4c-1.8,0-2.9-1.4-2.8-3.4,0-2,1-3.4,2.8-3.4ZM768.2,260.9c.9,0,1.4-.9,1.4-2.2s-.4-2.2-1.4-2.2c-.9,0-1.4.9-1.4,2.2,0,1.3.5,2.2,1.4,2.2Z"/>
              <path class="st21" d="M785.4,248.5h-6.4v-1.3h8.1c0,4.4-3.1,7.5-8.2,8.9l-.6-1.2c4.3-1.2,6.9-3.5,7.2-6.4ZM780.8,256.8h11v6.5h-11v-6.5ZM790.3,262v-3.9h-7.9v3.9h7.9ZM791.8,250.4h2.6v1.3h-2.6v4.3h-1.5v-9.9h1.5v4.3Z"/>
            </g>
            <g class="st15">
              <path class="st21" d="M811.4,261.2h-15.9v-1.3h7.1v-4.3h1.5v4.3h7.3v1.3ZM802.6,248.7v-1.3h1.6v1.3c0,2.9,3.4,5.5,6.5,6l-.7,1.3c-2.6-.5-5.4-2.3-6.6-4.8-1.1,2.5-3.9,4.3-6.6,4.8l-.7-1.3c3-.5,6.4-3.1,6.4-6Z"/>
            </g>
          </g>
          <g class="st2">
            <g>
              <path class="st10" d="M364.4,61h-192.3c-3.1,0-5.7-2.5-5.7-5.7v-30.2c0-3.1,2.5-5.7,5.7-5.7h192.3c3.1,0,5.7,2.5,5.7,5.7h0v30.2c0,3.1-2.5,5.7-5.7,5.7h0"/>
              <rect class="st7" x="166.4" y="19.5" width="203.7" height="41.5" rx="6" ry="6"/>
            </g>
          </g>
          <g class="st15">
            <g class="st15">
              <path class="st17" d="M240.8,44l-1,1.3c-2.1-1-3.9-3.2-4.7-5.8-.8,2.7-2.6,5.1-4.8,6.1l-1-1.4c2.7-1.2,5-4.7,5-8.2v-3.3h1.6v3.3c0,3.3,2.3,6.7,4.9,7.9ZM242.8,31.2h1.6v18.3h-1.6v-18.3Z"/>
              <path class="st17" d="M255.1,34h-6.8v-1.4h8.6c0,4.7-3.4,8.2-8.6,9.8l-.7-1.3c4.4-1.4,7.2-4,7.6-7.2ZM250.4,43.2h1.6v4.5h10.7v1.4h-12.3v-5.8ZM261.8,36.8h2.7v1.4h-2.7v6.4h-1.6v-13.4h1.6v5.6Z"/>
              <path class="st17" d="M271,46h4.4v-3.4c-1.4-.6-2.1-1.5-2.1-2.8,0-2.2,2.3-3.4,6-3.4,3.7,0,6,1.3,6,3.4,0,1.2-.8,2.2-2.1,2.8v3.4h4.5v1.3h-16.7v-1.3ZM286.7,35.3h-14.9v-1.3h6.7v-2.4h1.6v2.4h6.7v1.3ZM279.3,42c2.7,0,4.4-.8,4.3-2.1,0-1.4-1.7-2.2-4.3-2.2s-4.4.8-4.4,2.2c0,1.3,1.7,2.1,4.4,2.1ZM281.6,46v-2.9c-.7.1-1.5.2-2.3.2s-1.6,0-2.3-.2v2.9h4.6Z"/>
            </g>
            <g class="st15">
              <path class="st17" d="M292.9,44v-5.6h1.6v5.5c2,0,4.1-.2,6-.4v1.2c-3.8.6-8,.7-11.3.7l-.2-1.3c1.2,0,2.5,0,3.9,0ZM299.2,34.2c0,1.4,0,3.9-.5,7.2h-1.6c.5-3.2.5-5.4.5-6.9h-7.6v-1.3h9.3v.9ZM301.6,31.2h1.6v7.6h3v1.4h-3v9.2h-1.6v-18.2Z"/>
            </g>
          </g>
          <g class="st20">
            <g>
              <path class="st10" d="M911.2,61h-192.3c-3.1,0-5.7-2.5-5.7-5.7h0v-30.2c0-3.1,2.5-5.7,5.7-5.7h192.3c3.1,0,5.7,2.5,5.7,5.7h0v30.2c0,3.1-2.5,5.7-5.7,5.7h0"/>
              <rect class="st7" x="713.3" y="19.5" width="203.7" height="41.5" rx="6" ry="6"/>
            </g>
          </g>
          <g class="st15">
            <g class="st15">
              <path class="st17" d="M777.3,32.6h1.6v4.8h5.4v-4.8h1.6v12.3h-8.6v-12.3ZM784.3,43.6v-4.8h-5.4v4.8h5.4ZM791.3,49.3h-1.6v-18.3h1.6v18.3Z"/>
              <path class="st17" d="M811,41.4h-16.6v-1.3h4.1v-2.6c-1.5-.6-2.3-1.5-2.3-2.7,0-2.1,2.5-3.4,6.5-3.4,4,0,6.4,1.2,6.4,3.4,0,1.2-.8,2.1-2.3,2.7v2.6h4.1v1.3ZM802.7,42.8c3.9,0,6.3,1.1,6.3,3.2,0,2.1-2.4,3.2-6.3,3.2s-6.3-1.1-6.3-3.2c0-2.1,2.3-3.2,6.3-3.2ZM802.7,36.9c3,0,4.8-.8,4.8-2.1,0-1.3-1.8-2.1-4.8-2.1s-4.8.8-4.8,2.1c0,1.3,1.8,2.1,4.8,2.1ZM802.7,48c2.9,0,4.6-.7,4.7-2,0-1.2-1.8-2-4.7-2-2.9,0-4.7.7-4.7,2,0,1.2,1.7,2,4.7,2ZM805.3,40.1v-2.1c-.8.1-1.6.2-2.6.2s-1.8,0-2.6-.2v2.1h5.2Z"/>
              <path class="st17" d="M817.8,45.9h4.4v-3.4c-1.4-.6-2.1-1.5-2.1-2.8,0-2.2,2.3-3.4,6-3.4,3.7,0,6,1.3,6,3.4,0,1.2-.8,2.2-2.1,2.8v3.4h4.5v1.3h-16.7v-1.3ZM833.6,35.1h-14.9v-1.3h6.7v-2.4h1.6v2.4h6.7v1.3ZM826.1,41.9c2.7,0,4.4-.8,4.3-2.1,0-1.4-1.7-2.2-4.3-2.2s-4.4.8-4.4,2.2c0,1.3,1.7,2.1,4.4,2.1ZM828.4,45.9v-2.9c-.7.1-1.5.2-2.3.2s-1.6,0-2.3-.2v2.9h4.6Z"/>
            </g>
            <g class="st15">
              <path class="st17" d="M839.7,43.9v-5.6h1.6v5.5c2,0,4.1-.2,6-.4v1.2c-3.8.6-8,.7-11.3.7l-.2-1.3c1.2,0,2.5,0,3.9,0ZM846.1,34c0,1.4,0,3.9-.5,7.2h-1.6c.5-3.2.5-5.4.5-6.9h-7.6v-1.3h9.3v.9ZM848.4,31.1h1.6v7.6h3v1.4h-3v9.2h-1.6v-18.2Z"/>
            </g>
          </g>
          <g class="st5">
            <path class="st23" d="M399.3,23.7h10v10h-10v-10Z"/>
          </g>
          <g class="st6">
            <path class="st12" d="M399.3,44.7h10v10h-10v-10Z"/>
          </g>
          <g class="st13">
            <path class="st16" d="M958.4,23.7h10v10h-10v-10Z"/>
          </g>
          <g class="st15">
            <g class="st15">
              <path class="st17" d="M978.7,32.1c-2.5,0-4.4-2-4.4-5.1,0-3.1,1.8-5.1,4.4-5.1s4.4,2,4.4,5.1c0,3.1-1.8,5.1-4.4,5.1ZM978.7,31c1.8,0,3.2-1.4,3.2-3.9,0-2.6-1.4-3.9-3.2-3.9s-3.2,1.4-3.2,3.9c0,2.5,1.4,3.9,3.2,3.9Z"/>
              <path class="st17" d="M992.8,32h-1.2l-5.4-7.7h0v7.7h-1.2v-9.9h1.2l5.4,7.7h0v-7.7h1.2v9.9Z"/>
            </g>
            <g class="st15">
              <path class="st17" d="M994.9,22.1h6v1.1h-4.8v3.3h4.5v1.1h-4.5v3.3h4.8v1.1h-6.1v-9.9Z"/>
            </g>
            <g class="st15">
              <path class="st17" d="M1005.6,32l3.6-9.9h1.3l3.6,9.9h-1.3l-1-2.8h-4l-1,2.8h-1.3ZM1011.4,28.1l-1.6-4.4h0l-1.6,4.4h3.2Z"/>
            </g>
            <g class="st15">
              <path class="st17" d="M1016.7,32h-1.2v-9.9h1.2v9.9Z"/>
              <path class="st17" d="M1031.6,27.5h-3.8v3.1h5.1v.9h-11.1v-.9h5v-3.1h-3.6v-5.6h8.3v.9h-7.2v3.8h7.3v.9Z"/>
              <path class="st17" d="M1037.3,21.5c1.8,0,3.2,1.1,3.2,2.8,0,1.7-1.3,2.8-3.2,2.8-1.8,0-3.2-1.1-3.2-2.8,0-1.7,1.3-2.8,3.2-2.8ZM1037.3,26.2c1.2,0,2.1-.8,2.1-1.9s-.9-1.9-2.1-1.9c-1.3,0-2.1.8-2.1,1.9,0,1.1.9,1.9,2.1,1.9ZM1036,28.1h1.1v1.5h5.7v-1.5h1.1v4.9h-7.9v-4.9ZM1042.8,32.1v-1.6h-5.7v1.6h5.7ZM1043.9,27.5h-1.1v-6.5h1.1v6.5Z"/>
            </g>
            <g class="st15">
              <path class="st17" d="M1052.6,23.5v-.6h-2.7v-.9h6.5v.9h-2.7v.6c0,1.6,1.2,3.1,3,3.7l-.6.9c-1.4-.5-2.4-1.5-3-2.8-.5,1.4-1.6,2.5-3.1,3.1l-.6-.9c1.8-.6,3.1-2.2,3.1-4ZM1051.8,29.1h1.1v2.9h7.1v.9h-8.1v-3.8ZM1059.6,29.9h-1.1v-4.7h-2.5v-.9h2.5v-3.4h1.1v8.9Z"/>
            </g>
          </g>
          <g class="st24">
            <path class="st21" d="M958.4,44.7h10v10h-10v-10Z"/>
          </g>
          <g class="st15">
            <g class="st15">
              <path class="st17" d="M978.7,53.1c-2.5,0-4.4-2-4.4-5.1,0-3.1,1.8-5.1,4.4-5.1s4.4,2,4.4,5.1c0,3.1-1.8,5.1-4.4,5.1ZM978.7,51.9c1.8,0,3.2-1.4,3.2-3.9,0-2.6-1.4-3.9-3.2-3.9s-3.2,1.4-3.2,3.9c0,2.5,1.4,3.9,3.2,3.9Z"/>
              <path class="st17" d="M992.8,53h-1.2l-5.4-7.7h0v7.7h-1.2v-9.9h1.2l5.4,7.7h0v-7.7h1.2v9.9Z"/>
            </g>
            <g class="st15">
              <path class="st17" d="M994.9,43.1h6v1.1h-4.8v3.3h4.5v1.1h-4.5v3.3h4.8v1.1h-6.1v-9.9Z"/>
            </g>
            <g class="st15">
              <path class="st17" d="M1005.6,53l3.6-9.9h1.3l3.6,9.9h-1.3l-1-2.8h-4l-1,2.8h-1.3ZM1011.4,49.1l-1.6-4.4h0l-1.6,4.4h3.2Z"/>
            </g>
            <g class="st15">
              <path class="st17" d="M1016.7,53h-1.2v-9.9h1.2v9.9Z"/>
              <path class="st17" d="M1031.6,48.5h-3.8v3.1h5.1v.9h-11.1v-.9h5v-3.1h-3.6v-5.6h8.3v.9h-7.2v3.8h7.3v.9Z"/>
              <path class="st17" d="M1037.3,42.5c1.8,0,3.2,1.1,3.2,2.8,0,1.7-1.3,2.8-3.2,2.8-1.8,0-3.2-1.1-3.2-2.8,0-1.7,1.3-2.8,3.2-2.8ZM1037.3,47.2c1.2,0,2.1-.8,2.1-1.9s-.9-1.9-2.1-1.9c-1.3,0-2.1.8-2.1,1.9,0,1.1.9,1.9,2.1,1.9ZM1036,49h1.1v1.5h5.7v-1.5h1.1v4.9h-7.9v-4.9ZM1042.8,53v-1.6h-5.7v1.6h5.7ZM1043.9,48.4h-1.1v-6.5h1.1v6.5Z"/>
            </g>
            <g class="st15">
              <path class="st17" d="M1049.5,49.8h11.1v.9h-5.1v3.4h-1.1v-3.4h-5v-.9ZM1059.9,44.2h-9.9v-.9h4.4v-1.5h1.1v1.5h4.4v.9ZM1055,44.9c2.5,0,4,.7,4,2,0,1.3-1.5,2-4,2-2.5,0-4-.7-4-2,0-1.3,1.5-2,4-2ZM1055,48.1c1.8,0,2.8-.4,2.9-1.2,0-.8-1.1-1.2-2.9-1.2-1.8,0-2.9.5-2.9,1.2,0,.8,1,1.2,2.9,1.2Z"/>
            </g>
          </g>
        </g>
      </g>
    </g>
  </g>
</svg>