<?xml version="1.0" encoding="UTF-8"?><svg id="Layer_1" xmlns="http://www.w3.org/2000/svg" xmlns:xlink="http://www.w3.org/1999/xlink" viewBox="0 0 1072.36 267.33"><defs><style>.cls-1,.cls-2,.cls-3,.cls-4,.cls-5,.cls-6,.cls-7,.cls-8,.cls-9,.cls-10{fill:none;}.cls-2{stroke-miterlimit:10;stroke-width:1.07px;}.cls-2,.cls-3{stroke:#3e539f;}.cls-3,.cls-4,.cls-5,.cls-6,.cls-11,.cls-9,.cls-10{stroke-miterlimit:10;}.cls-3,.cls-6,.cls-7,.cls-8{stroke-width:1.07px;}.cls-12{fill:#423686;}.cls-13{fill:url(#linear-gradient-3);}.cls-14{fill:url(#linear-gradient-2);}.cls-4{stroke:#17428a;}.cls-4,.cls-5,.cls-9,.cls-10{stroke-width:1.19px;}.cls-15{fill:url(#linear-gradient);}.cls-5,.cls-6{stroke:#8d1d70;}.cls-16{fill:#8d1d70;}.cls-17{clip-path:url(#clippath-1);}.cls-18{clip-path:url(#clippath-3);}.cls-19{clip-path:url(#clippath-4);}.cls-20{clip-path:url(#clippath-2);}.cls-21{clip-path:url(#clippath-7);}.cls-22{clip-path:url(#clippath-6);}.cls-23{clip-path:url(#clippath-5);}.cls-24,.cls-11{fill:#fff;}.cls-7,.cls-11,.cls-8,.cls-9,.cls-10{stroke:#423686;}.cls-7,.cls-8{stroke-linejoin:round;}.cls-25{fill:#2b5ca7;}.cls-8{stroke-linecap:round;}.cls-26{opacity:.3;}.cls-10{stroke-dasharray:3.56 2.37;}.cls-27{clip-path:url(#clippath);}</style><clipPath id="clippath"><rect class="cls-1" width="1072.36" height="267.33"/></clipPath><clipPath id="clippath-1"><rect class="cls-1" width="1072.36" height="267.33"/></clipPath><clipPath id="clippath-2"><path class="cls-1" d="M1015.9,267.33H56.46c-31.18,0-56.46-25.28-56.46-56.46V56.46C0,25.28,25.28,0,56.46,0h959.44c31.18,0,56.46,25.28,56.46,56.46v154.4c0,31.18-25.28,56.46-56.46,56.47h0Z"/></clipPath><linearGradient id="linear-gradient" x1="-618.46" y1="2404.5" x2="-618.46" y2="2404.5" gradientTransform="translate(663214.41 642928.06) scale(1072.36 -267.33)" gradientUnits="userSpaceOnUse"><stop offset="0" stop-color="#569cd5"/><stop offset=".69" stop-color="#543d8c"/><stop offset="1" stop-color="#9f458e"/></linearGradient><clipPath id="clippath-3"><rect class="cls-1" x="501.52" y="126.16" width="62.43" height="10.19"/></clipPath><clipPath id="clippath-4"><rect class="cls-1" x="134.38" y="98.79" width="30.12" height="30.12"/></clipPath><clipPath id="clippath-5"><rect class="cls-1" x="888.89" y="84.75" width="62.92" height="62.94"/></clipPath><clipPath id="clippath-6"><circle class="cls-1" cx="352.89" cy="132.8" r="25.3"/></clipPath><linearGradient id="linear-gradient-2" x1="-623.7" y1="2395.44" x2="-623.68" y2="2395.44" gradientTransform="translate(31556.22 121327.85) scale(50.6 -50.59)" gradientUnits="userSpaceOnUse"><stop offset="0" stop-color="#0e529e"/><stop offset=".2" stop-color="#214894"/><stop offset=".46" stop-color="#333e8c"/><stop offset=".72" stop-color="#3e3887"/><stop offset="1" stop-color="#423786"/></linearGradient><clipPath id="clippath-7"><circle class="cls-1" cx="731.07" cy="132.8" r="25.3"/></clipPath><linearGradient id="linear-gradient-3" x1="-631.18" y1="2395.44" x2="-631.16" y2="2395.44" gradientTransform="translate(31933.17 121327.85) scale(50.59 -50.59)" gradientUnits="userSpaceOnUse"><stop offset="0" stop-color="#423786"/><stop offset="1" stop-color="#913d8a"/></linearGradient></defs><rect class="cls-1" width="1072.36" height="267.33"/><g class="cls-26"><g class="cls-27"><g class="cls-17"><g class="cls-20"><rect id="_사각형_5223" class="cls-15" width="1072.36" height="267.33"/></g></g></g></g><rect class="cls-1" width="1072.36" height="267.33"/><line id="_선_77" class="cls-10" x1="169.18" y1="132.8" x2="433.64" y2="132.8"/><line id="_선_78" class="cls-10" x1="629.16" y1="132.8" x2="893.62" y2="132.8"/><circle id="_타원_135" class="cls-4" cx="149.44" cy="136.51" r="99.09"/><circle id="_타원_136" class="cls-9" cx="533.96" cy="136.51" r="99.09"/><path id="_패스_10340" class="cls-11" d="M248.53,136.51c0,54.73-44.37,99.09-99.09,99.09s-99.09-44.37-99.09-99.09c0-54.73,44.37-99.09,99.09-99.09s99.09,44.37,99.09,99.09h0"/><path id="_패스_10341" class="cls-11" d="M633.05,136.51c0,54.73-44.37,99.09-99.09,99.09s-99.09-44.37-99.09-99.09,44.37-99.09,99.09-99.09c54.73,0,99.09,44.37,99.09,99.09h0"/><path id="_패스_10342" class="cls-11" d="M1018.48,136.51c0,54.73-44.36,99.09-99.09,99.1-54.73,0-99.09-44.36-99.09-99.09s44.36-99.09,99.09-99.1h0c54.73,0,99.09,44.37,99.09,99.09"/><circle id="_타원_137" class="cls-5" cx="919.39" cy="136.51" r="99.09"/><line id="_선_79" class="cls-8" x1="526.96" y1="119.81" x2="538.63" y2="92.58"/><path id="_패스_10343" class="cls-8" d="M523.07,98.42l-7.78,7.78,7.78,7.78M542.52,113.97l7.78-7.78-7.78-7.78"/><path id="_패스_10344" class="cls-8" d="M516.6,145.79h32.34M527.34,136.48l-2.46,9.02M501.29,126.29h62.94M540.71,145.51l-2.48-9.02"/><rect id="_사각형_5238" class="cls-7" x="501.28" y="86.18" width="63.02" height="50.31" rx="1.85" ry="1.85"/><g class="cls-26"><g class="cls-18"><path id="_패스_10345" class="cls-12" d="M562.36,136.35h-59.23c-.88,0-1.6-.72-1.6-1.6h0v-8.6h62.43v8.6c0,.88-.72,1.6-1.6,1.6"/></g></g><path id="_패스_10347" class="cls-3" d="M176.66,113.85c0-.84-.05-1.67-.13-2.49l4.47-3.39c1.94-1.43,2.47-4.1,1.23-6.17l-5.59-9.36c-1.28-2.08-3.87-2.95-6.15-2.05l-5.29,2.05c-1.4-.96-2.89-1.8-4.45-2.48l-.81-5.45c-.39-2.4-2.48-4.15-4.92-4.12h-11.18c-2.43-.03-4.52,1.72-4.91,4.12l-.81,5.45c-1.56.69-3.05,1.52-4.45,2.48l-5.29-2.05c-2.28-.89-4.87-.03-6.15,2.05l-5.59,9.36c-1.23,2.07-.7,4.74,1.24,6.17l4.47,3.39c-.08.82-.13,1.65-.13,2.49s.05,1.67.13,2.49l-4.47,3.39c-1.94,1.43-2.47,4.1-1.24,6.17l5.59,9.36c1.28,2.08,3.87,2.95,6.15,2.05l5.29-2.05c1.4.96,2.89,1.8,4.45,2.48l.81,5.45c.39,2.4,2.48,4.15,4.91,4.12h11.18c2.43.03,4.52-1.72,4.92-4.12l.81-5.45c1.56-.69,3.05-1.52,4.45-2.48l5.29,2.05c2.28.89,4.87.03,6.15-2.05l5.59-9.36c1.23-2.07.7-4.74-1.24-6.17l-4.48-3.39c.08-.82.13-1.65.13-2.49Z"/><circle id="_타원_138" class="cls-2" cx="149.44" cy="113.85" r="15.06"/><g class="cls-26"><g class="cls-19"><path id="_패스_10348" class="cls-25" d="M164.5,113.85c0,8.32-6.74,15.06-15.06,15.06s-15.06-6.74-15.06-15.06c0-8.32,6.74-15.06,15.06-15.06h0c8.32,0,15.06,6.74,15.06,15.06"/></g></g><path id="_패스_10346" class="cls-16" d="M967.64,128.23c0,1.67-1.35,3.02-3.02,3.02s-3.02-1.35-3.02-3.02,1.35-3.02,3.02-3.02h0c1.67,0,3.02,1.35,3.02,3.02"/><g class="cls-26"><g class="cls-23"><path id="_패스_10349" class="cls-16" d="M901.87,145.24l33.68-37.12c6.25,2.32,13.19-.87,15.51-7.11,1.14-3.06.98-6.45-.42-9.39l-8.04,8.04c-1.58,1.56-4.13,1.54-5.68-.04-1.54-1.57-1.54-4.08,0-5.64l8.04-8.04h0c-6.01-2.87-13.21-.32-16.08,5.69-1.41,2.95-1.56,6.33-.42,9.39l-37.1,33.71c-3.05,2.75-3.3,7.46-.54,10.52s7.46,3.3,10.52.54c.19-.17.37-.35.55-.55"/></g></g><path id="_패스_10350" class="cls-6" d="M929.92,116.16l20.92,20.92c1.8,1.95,1.67,4.99-.28,6.78-1.84,1.69-4.67,1.69-6.5,0l-20.92-20.92M947.4,140.42l-20.86-20.86M917.48,110.5l-17.58-17.58M897.85,94.97l4.09-4.09-6.49-5.9-3.5,3.5,5.9,6.49ZM902.31,144.98l33.69-37.12c6.25,2.32,13.19-.87,15.51-7.11,1.14-3.06.98-6.45-.42-9.39l-8.04,8.05c-1.58,1.56-4.13,1.54-5.68-.04-1.54-1.57-1.54-4.08,0-5.64l8.04-8.04c-6.01-2.87-13.21-.32-16.08,5.69-1.41,2.94-1.56,6.33-.42,9.39l-37.1,33.71c-3.05,2.75-3.3,7.46-.54,10.52s7.46,3.3,10.52.54c.19-.17.37-.35.55-.55h0Z"/><g class="cls-22"><rect id="_사각형_5226" class="cls-14" x="327.59" y="107.51" width="50.6" height="50.59"/></g><path id="_패스_10337" class="cls-24" d="M347.78,120.68l15.68,12.12-15.68,12.13"/><g class="cls-21"><rect id="_사각형_5228" class="cls-13" x="705.77" y="107.51" width="50.59" height="50.59"/></g><path id="_패스_10339" class="cls-24" d="M725.96,120.68l15.68,12.12-15.68,12.13"/></svg>